[2026-03-25T02:56:47] SOURCE: D:\apps\ErsatzTV-HLS-Copy-Prep\source\11.mp4
[2026-03-25T02:56:47] TARGET: D:\apps\ErsatzTV-HLS-Copy-Prep\target\11.mp4
[2026-03-25T02:56:47] FPS: 25.000000
[2026-03-25T02:56:47] CMD: ["D:\\apps\\ErsatzTV-HLS-Copy-Prep\\bin\\ffmpeg.exe", "-y", "-hide_banner", "-loglevel", "info", "-stats_period", "5", "-progress", "pipe:1", "-i", "D:\\apps\\ErsatzTV-HLS-Copy-Prep\\source\\11.mp4", "-map", "0:v:0", "-map", "0:a:0?", "-sn", "-dn", "-vf", "scale=trunc(iw/2)*2:trunc(ih/2)*2,setsar=1,fps=25", "-c:v", "libx264", "-preset", "medium", "-crf", "18", "-pix_fmt", "yuv420p", "-profile:v", "high", "-level", "4.1", "-g", "25", "-keyint_min", "25", "-sc_threshold", "0", "-bf", "0", "-force_key_frames", "expr:gte(t,n_forced*1)", "-c:a", "aac", "-b:a", "192k", "-ar", "48000", "-ac", "2", "-movflags", "+faststart", "D:\\apps\\ErsatzTV-HLS-Copy-Prep\\target\\11.mp4"]

ffmpeg stats and -progress period set to 5.
Input #0, mov,mp4,m4a,3gp,3g2,mj2, from 'D:\apps\ErsatzTV-HLS-Copy-Prep\source\11.mp4':
  Metadata:
    major_brand     : isom
    minor_version   : 512
    compatible_brands: isomiso2mp41
    encoder         : Lavf58.12.100
  Duration: 00:27:24.69, start: 0.000000, bitrate: 885 kb/s
  Stream #0:0[0x1](und): Video: hevc (Main) (hev1 / 0x31766568), yuv420p(tv, bt709), 1920x1080 [SAR 1:1 DAR 16:9], 785 kb/s, 25 fps, 25 tbr, 90k tbn (default)
      Metadata:
        handler_name    : VideoHandler
        vendor_id       : [0][0][0][0]
  Stream #0:1[0x2](und): Audio: aac (LC) (mp4a / 0x6134706D), 48000 Hz, stereo, fltp, 93 kb/s (default)
      Metadata:
        handler_name    : SoundHandler
        vendor_id       : [0][0][0][0]
Stream mapping:
  Stream #0:0 -> #0:0 (hevc (native) -> h264 (libx264))
  Stream #0:1 -> #0:1 (aac (native) -> aac (native))
Press [q] to stop, [?] for help
[libx264 @ 0000020b33286980] using SAR=1/1
[libx264 @ 0000020b33286980] using cpu capabilities: MMX2 SSE2Fast SSSE3 SSE4.2 AVX
[libx264 @ 0000020b33286980] profile High, level 4.1, 4:2:0, 8-bit
[libx264 @ 0000020b33286980] 264 - core 165 - H.264/MPEG-4 AVC codec - Copyleft 2003-2025 - http://www.videolan.org/x264.html - options: cabac=1 ref=3 deblock=1:0:0 analyse=0x3:0x113 me=hex subme=7 psy=1 psy_rd=1.00:0.00 mixed_ref=1 me_range=16 chroma_me=1 trellis=1 8x8dct=1 cqm=0 deadzone=21,11 fast_pskip=1 chroma_qp_offset=-2 threads=12 lookahead_threads=2 sliced_threads=0 nr=0 decimate=1 interlaced=0 bluray_compat=0 constrained_intra=0 bframes=0 weightp=2 keyint=25 keyint_min=13 scenecut=0 intra_refresh=0 rc_lookahead=25 rc=crf mbtree=1 crf=18.0 qcomp=0.60 qpmin=0 qpmax=69 qpstep=4 ip_ratio=1.40 aq=1:1.00
Output #0, mp4, to 'D:\apps\ErsatzTV-HLS-Copy-Prep\target\11.mp4':
  Metadata:
    major_brand     : isom
    minor_version   : 512
    compatible_brands: isomiso2mp41
    encoder         : Lavf61.7.100
  Stream #0:0(und): Video: h264 (avc1 / 0x31637661), yuv420p(tv, bt709, progressive), 1920x1080 [SAR 1:1 DAR 16:9], q=2-31, 25 fps, 12800 tbn (default)
      Metadata:
        handler_name    : VideoHandler
        vendor_id       : [0][0][0][0]
        encoder         : Lavc61.19.101 libx264
      Side data:
        cpb: bitrate max/min/avg: 0/0/0 buffer size: 0 vbv_delay: N/A
  Stream #0:1(und): Audio: aac (LC) (mp4a / 0x6134706D), 48000 Hz, stereo, fltp, 192 kb/s (default)
      Metadata:
        handler_name    : SoundHandler
        vendor_id       : [0][0][0][0]
        encoder         : Lavc61.19.101 aac
frame=  290 fps= 58 q=20.0 size=    1792KiB time=00:00:11.64 bitrate=1261.2kbits/s speed=2.32x    
frame=290
fps=57.72
stream_0_0_q=20.0
bitrate=1261.2kbits/s
total_size=1835056
out_time_us=11640000
out_time_ms=11640000
out_time=00:00:11.640000
dup_frames=0
drop_frames=0
speed=2.32x
progress=continue
frame=  511 fps= 51 q=23.0 size=    4608KiB time=00:00:20.40 bitrate=1850.4kbits/s speed=2.03x    
frame=511
fps=50.89
stream_0_0_q=23.0
bitrate=1850.4kbits/s
total_size=4718640
out_time_us=20400000
out_time_ms=20400000
out_time=00:00:20.400000
dup_frames=0
drop_frames=0
speed=2.03x
progress=continue
frame=  639 fps= 42 q=23.0 size=    8192KiB time=00:00:25.56 bitrate=2625.6kbits/s speed=1.69x    
frame=639
fps=42.26
stream_0_0_q=23.0
bitrate=2625.6kbits/s
total_size=8388656
out_time_us=25560000
out_time_ms=25560000
out_time=00:00:25.560000
dup_frames=0
drop_frames=0
speed=1.69x
progress=continue
frame=  768 fps= 38 q=23.0 size=   12288KiB time=00:00:30.68 bitrate=3281.1kbits/s speed=1.52x    
frame=768
fps=38.05
stream_0_0_q=23.0
bitrate=3281.1kbits/s
total_size=12582960
out_time_us=30680000
out_time_ms=30680000
out_time=00:00:30.680000
dup_frames=0
drop_frames=0
speed=1.52x
progress=continue
frame=  895 fps= 35 q=23.0 size=   15872KiB time=00:00:35.72 bitrate=3640.1kbits/s speed=1.41x    
frame=895
fps=35.37
stream_0_0_q=23.0
bitrate=3640.1kbits/s
total_size=16252976
out_time_us=35720000
out_time_ms=35720000
out_time=00:00:35.720000
dup_frames=0
drop_frames=0
speed=1.41x
progress=continue
frame= 1015 fps= 33 q=20.0 size=   19968KiB time=00:00:40.64 bitrate=4025.1kbits/s speed=1.34x    
frame=1015
fps=33.36
stream_0_0_q=20.0
bitrate=4025.1kbits/s
total_size=20447280
out_time_us=40640000
out_time_ms=40640000
out_time=00:00:40.640000
dup_frames=0
drop_frames=0
speed=1.34x
progress=continue
frame= 1113 fps= 31 q=23.0 size=   23808KiB time=00:00:44.52 bitrate=4380.9kbits/s speed=1.26x    
frame=1113
fps=31.39
stream_0_0_q=23.0
bitrate=4380.9kbits/s
total_size=24379440
out_time_us=44520000
out_time_ms=44520000
out_time=00:00:44.520000
dup_frames=0
drop_frames=0
speed=1.26x
progress=continue
frame= 1210 fps= 30 q=23.0 size=   28416KiB time=00:00:48.44 bitrate=4805.6kbits/s speed= 1.2x    
frame=1210
fps=29.85
stream_0_0_q=23.0
bitrate=4805.6kbits/s
total_size=29098032
out_time_us=48440000
out_time_ms=48440000
out_time=00:00:48.440000
dup_frames=0
drop_frames=0
speed= 1.2x
progress=continue
frame= 1334 fps= 29 q=23.0 size=   32000KiB time=00:00:53.40 bitrate=4909.1kbits/s speed=1.17x    
frame=1334
fps=29.28
stream_0_0_q=23.0
bitrate=4909.1kbits/s
total_size=32768048
out_time_us=53400000
out_time_ms=53400000
out_time=00:00:53.400000
dup_frames=0
drop_frames=0
speed=1.17x
progress=continue
frame= 1443 fps= 29 q=23.0 size=   36352KiB time=00:00:57.72 bitrate=5159.3kbits/s speed=1.14x    
frame=1443
fps=28.52
stream_0_0_q=23.0
bitrate=5159.3kbits/s
total_size=37224496
out_time_us=57720000
out_time_ms=57720000
out_time=00:00:57.720000
dup_frames=0
drop_frames=0
speed=1.14x
progress=continue
frame= 1541 fps= 28 q=23.0 size=   41728KiB time=00:01:01.68 bitrate=5542.1kbits/s speed=1.11x    
frame=1541
fps=27.67
stream_0_0_q=23.0
bitrate=5542.1kbits/s
total_size=42729520
out_time_us=61680000
out_time_ms=61680000
out_time=00:01:01.680000
dup_frames=0
drop_frames=0
speed=1.11x
progress=continue
frame= 1636 fps= 27 q=23.0 size=   46592KiB time=00:01:05.48 bitrate=5829.0kbits/s speed=1.08x    
frame=1636
fps=26.95
stream_0_0_q=23.0
bitrate=5829.0kbits/s
total_size=47710256
out_time_us=65480000
out_time_ms=65480000
out_time=00:01:05.480000
dup_frames=0
drop_frames=0
speed=1.08x
progress=continue
frame= 1762 fps= 27 q=23.0 size=   52224KiB time=00:01:10.52 bitrate=6066.6kbits/s speed=1.07x    
frame=1762
fps=26.80
stream_0_0_q=23.0
bitrate=6066.6kbits/s
total_size=53477424
out_time_us=70520000
out_time_ms=70520000
out_time=00:01:10.520000
dup_frames=0
drop_frames=0
speed=1.07x
progress=continue
frame= 1865 fps= 26 q=20.0 size=   56320KiB time=00:01:14.64 bitrate=6181.3kbits/s speed=1.05x    
frame=1865
fps=26.36
stream_0_0_q=20.0
bitrate=6181.3kbits/s
total_size=57671728
out_time_us=74640000
out_time_ms=74640000
out_time=00:01:14.640000
dup_frames=0
drop_frames=0
speed=1.05x
progress=continue
frame= 1984 fps= 26 q=23.0 size=   60416KiB time=00:01:19.40 bitrate=6233.4kbits/s speed=1.05x    
frame=1984
fps=26.18
stream_0_0_q=23.0
bitrate=6233.4kbits/s
total_size=61866032
out_time_us=79400000
out_time_ms=79400000
out_time=00:01:19.400000
dup_frames=0
drop_frames=0
speed=1.05x
progress=continue
frame= 2085 fps= 26 q=23.0 size=   64512KiB time=00:01:23.44 bitrate=6333.7kbits/s speed=1.03x    
frame=2085
fps=25.81
stream_0_0_q=23.0
bitrate=6333.7kbits/s
total_size=66060336
out_time_us=83440000
out_time_ms=83440000
out_time=00:01:23.440000
dup_frames=0
drop_frames=0
speed=1.03x
progress=continue
frame= 2204 fps= 26 q=23.0 size=   68352KiB time=00:01:28.20 bitrate=6348.5kbits/s speed=1.03x    
frame=2204
fps=25.68
stream_0_0_q=23.0
bitrate=6348.5kbits/s
total_size=69992496
out_time_us=88200000
out_time_ms=88200000
out_time=00:01:28.200000
dup_frames=0
drop_frames=0
speed=1.03x
progress=continue
frame= 2339 fps= 26 q=23.0 size=   73216KiB time=00:01:33.60 bitrate=6408.0kbits/s speed=1.03x    
frame=2339
fps=25.75
stream_0_0_q=23.0
bitrate=6408.0kbits/s
total_size=74973232
out_time_us=93600000
out_time_ms=93600000
out_time=00:01:33.600000
dup_frames=0
drop_frames=0
speed=1.03x
progress=continue
frame= 2469 fps= 26 q=23.0 size=   77824KiB time=00:01:38.80 bitrate=6452.8kbits/s speed=1.03x    
frame=2469
fps=25.75
stream_0_0_q=23.0
bitrate=6452.8kbits/s
total_size=79691824
out_time_us=98800000
out_time_ms=98800000
out_time=00:01:38.800000
dup_frames=0
drop_frames=0
speed=1.03x
progress=continue
frame= 2597 fps= 26 q=23.0 size=   81920KiB time=00:01:43.88 bitrate=6460.2kbits/s speed=1.03x    
frame=2597
fps=25.74
stream_0_0_q=23.0
bitrate=6460.2kbits/s
total_size=83886128
out_time_us=103880000
out_time_ms=103880000
out_time=00:01:43.880000
dup_frames=0
drop_frames=0
speed=1.03x
progress=continue
frame= 2745 fps= 26 q=23.0 size=   86784KiB time=00:01:49.84 bitrate=6472.5kbits/s speed=1.04x    
frame=2745
fps=25.91
stream_0_0_q=23.0
bitrate=6472.5kbits/s
total_size=88866864
out_time_us=109840000
out_time_ms=109840000
out_time=00:01:49.840000
dup_frames=0
drop_frames=0
speed=1.04x
progress=continue
frame= 2981 fps= 27 q=23.0 size=   89856KiB time=00:01:59.20 bitrate=6175.3kbits/s speed=1.07x    
frame=2981
fps=26.87
stream_0_0_q=23.0
bitrate=6175.3kbits/s
total_size=92012592
out_time_us=119200000
out_time_ms=119200000
out_time=00:01:59.200000
dup_frames=0
drop_frames=0
speed=1.07x
progress=continue
frame= 3085 fps= 27 q=23.0 size=   92672KiB time=00:02:03.36 bitrate=6154.1kbits/s speed=1.06x    
frame=3085
fps=26.59
stream_0_0_q=23.0
bitrate=6154.1kbits/s
total_size=94896176
out_time_us=123360000
out_time_ms=123360000
out_time=00:02:03.360000
dup_frames=0
drop_frames=0
speed=1.06x
progress=continue
frame= 3205 fps= 26 q=23.0 size=   99328KiB time=00:02:08.24 bitrate=6345.1kbits/s speed=1.06x    
frame=3205
fps=26.46
stream_0_0_q=23.0
bitrate=6345.1kbits/s
total_size=101711920
out_time_us=128240000
out_time_ms=128240000
out_time=00:02:08.240000
dup_frames=0
drop_frames=0
speed=1.06x
progress=continue
frame= 3321 fps= 26 q=23.0 size=  104704KiB time=00:02:12.88 bitrate=6455.0kbits/s speed=1.05x    
frame=3321
fps=26.33
stream_0_0_q=23.0
bitrate=6455.0kbits/s
total_size=107216944
out_time_us=132880000
out_time_ms=132880000
out_time=00:02:12.880000
dup_frames=0
drop_frames=0
speed=1.05x
progress=continue
frame= 3468 fps= 26 q=23.0 size=  108288KiB time=00:02:18.76 bitrate=6393.0kbits/s speed=1.06x    
frame=3468
fps=26.44
stream_0_0_q=23.0
bitrate=6393.0kbits/s
total_size=110886960
out_time_us=138760000
out_time_ms=138760000
out_time=00:02:18.760000
dup_frames=0
drop_frames=0
speed=1.06x
progress=continue
frame= 3641 fps= 27 q=23.0 size=  112384KiB time=00:02:25.68 bitrate=6319.7kbits/s speed=1.07x    
frame=3641
fps=26.73
stream_0_0_q=23.0
bitrate=6319.7kbits/s
total_size=115081264
out_time_us=145680000
out_time_ms=145680000
out_time=00:02:25.680000
dup_frames=0
drop_frames=0
speed=1.07x
progress=continue
frame= 3784 fps= 27 q=23.0 size=  116736KiB time=00:02:31.40 bitrate=6316.4kbits/s speed=1.07x    
frame=3784
fps=26.79
stream_0_0_q=23.0
bitrate=6316.4kbits/s
total_size=119537712
out_time_us=151400000
out_time_ms=151400000
out_time=00:02:31.400000
dup_frames=0
drop_frames=0
speed=1.07x
progress=continue
frame= 3928 fps= 27 q=23.0 size=  120832KiB time=00:02:36.96 bitrate=6306.4kbits/s speed=1.07x    
frame=3928
fps=26.85
stream_0_0_q=23.0
bitrate=6306.4kbits/s
total_size=123732016
out_time_us=156960000
out_time_ms=156960000
out_time=00:02:36.960000
dup_frames=0
drop_frames=0
speed=1.07x
progress=continue
frame= 4054 fps= 27 q=23.0 size=  126720KiB time=00:02:42.16 bitrate=6401.6kbits/s speed=1.07x    
frame=4054
fps=26.78
stream_0_0_q=23.0
bitrate=6401.6kbits/s
total_size=129761328
out_time_us=162160000
out_time_ms=162160000
out_time=00:02:42.160000
dup_frames=0
drop_frames=0
speed=1.07x
progress=continue
frame= 4171 fps= 27 q=23.0 size=  131584KiB time=00:02:46.80 bitrate=6462.4kbits/s speed=1.07x    
frame=4171
fps=26.66
stream_0_0_q=23.0
bitrate=6462.4kbits/s
total_size=134742064
out_time_us=166800000
out_time_ms=166800000
out_time=00:02:46.800000
dup_frames=0
drop_frames=0
speed=1.07x
progress=continue
frame= 4311 fps= 27 q=23.0 size=  135680KiB time=00:02:52.48 bitrate=6444.2kbits/s speed=1.07x    
frame=4311
fps=26.68
stream_0_0_q=23.0
bitrate=6444.2kbits/s
total_size=138936368
out_time_us=172480000
out_time_ms=172480000
out_time=00:02:52.480000
dup_frames=0
drop_frames=0
speed=1.07x
progress=continue
frame= 4444 fps= 27 q=23.0 size=  140032KiB time=00:02:57.76 bitrate=6453.3kbits/s speed=1.07x    
frame=4444
fps=26.68
stream_0_0_q=23.0
bitrate=6453.3kbits/s
total_size=143392816
out_time_us=177760000
out_time_ms=177760000
out_time=00:02:57.760000
dup_frames=0
drop_frames=0
speed=1.07x
progress=continue
frame= 4568 fps= 27 q=23.0 size=  144640KiB time=00:03:02.76 bitrate=6483.3kbits/s speed=1.06x    
frame=4568
fps=26.61
stream_0_0_q=23.0
bitrate=6483.3kbits/s
total_size=148111408
out_time_us=182760000
out_time_ms=182760000
out_time=00:03:02.760000
dup_frames=0
drop_frames=0
speed=1.06x
progress=continue
frame= 4715 fps= 27 q=20.0 size=  148736KiB time=00:03:08.60 bitrate=6460.5kbits/s speed=1.07x    
frame=4715
fps=26.69
stream_0_0_q=20.0
bitrate=6460.5kbits/s
total_size=152305712
out_time_us=188600000
out_time_ms=188600000
out_time=00:03:08.600000
dup_frames=0
drop_frames=0
speed=1.07x
progress=continue
frame= 4860 fps= 27 q=23.0 size=  152320KiB time=00:03:14.44 bitrate=6417.4kbits/s speed=1.07x    
frame=4860
fps=26.75
stream_0_0_q=23.0
bitrate=6417.4kbits/s
total_size=155975728
out_time_us=194440000
out_time_ms=194440000
out_time=00:03:14.440000
dup_frames=0
drop_frames=0
speed=1.07x
progress=continue
frame= 5031 fps= 27 q=23.0 size=  156416KiB time=00:03:21.28 bitrate=6366.1kbits/s speed=1.08x    
frame=5031
fps=26.94
stream_0_0_q=23.0
bitrate=6366.1kbits/s
total_size=160170032
out_time_us=201280000
out_time_ms=201280000
out_time=00:03:21.280000
dup_frames=0
drop_frames=0
speed=1.08x
progress=continue
frame= 5193 fps= 27 q=23.0 size=  160000KiB time=00:03:27.76 bitrate=6308.8kbits/s speed=1.08x    
frame=5193
fps=27.08
stream_0_0_q=23.0
bitrate=6308.8kbits/s
total_size=163840048
out_time_us=207760000
out_time_ms=207760000
out_time=00:03:27.760000
dup_frames=0
drop_frames=0
speed=1.08x
progress=continue
frame= 5343 fps= 27 q=23.0 size=  163328KiB time=00:03:33.68 bitrate=6261.6kbits/s speed=1.09x    
frame=5343
fps=27.15
stream_0_0_q=23.0
bitrate=6261.6kbits/s
total_size=167247920
out_time_us=213680000
out_time_ms=213680000
out_time=00:03:33.680000
dup_frames=0
drop_frames=0
speed=1.09x
progress=continue
frame= 5494 fps= 27 q=23.0 size=  166912KiB time=00:03:39.80 bitrate=6220.9kbits/s speed=1.09x    
frame=5494
fps=27.21
stream_0_0_q=23.0
bitrate=6220.9kbits/s
total_size=170917936
out_time_us=219800000
out_time_ms=219800000
out_time=00:03:39.800000
dup_frames=0
drop_frames=0
speed=1.09x
progress=continue
frame= 5636 fps= 27 q=23.0 size=  169984KiB time=00:03:45.48 bitrate=6175.8kbits/s speed=1.09x    
frame=5636
fps=27.24
stream_0_0_q=23.0
bitrate=6175.8kbits/s
total_size=174063664
out_time_us=225480000
out_time_ms=225480000
out_time=00:03:45.480000
dup_frames=0
drop_frames=0
speed=1.09x
progress=continue
frame= 5778 fps= 27 q=23.0 size=  173824KiB time=00:03:51.16 bitrate=6160.1kbits/s speed=1.09x    
frame=5778
fps=27.26
stream_0_0_q=23.0
bitrate=6160.1kbits/s
total_size=177995824
out_time_us=231160000
out_time_ms=231160000
out_time=00:03:51.160000
dup_frames=0
drop_frames=0
speed=1.09x
progress=continue
frame= 5934 fps= 27 q=23.0 size=  177152KiB time=00:03:57.40 bitrate=6113.0kbits/s speed=1.09x    
frame=5934
fps=27.35
stream_0_0_q=23.0
bitrate=6113.0kbits/s
total_size=181403696
out_time_us=237400000
out_time_ms=237400000
out_time=00:03:57.400000
dup_frames=0
drop_frames=0
speed=1.09x
progress=continue
frame= 6081 fps= 27 q=23.0 size=  180736KiB time=00:04:03.24 bitrate=6086.9kbits/s speed= 1.1x    
frame=6081
fps=27.39
stream_0_0_q=23.0
bitrate=6086.9kbits/s
total_size=185073712
out_time_us=243240000
out_time_ms=243240000
out_time=00:04:03.240000
dup_frames=0
drop_frames=0
speed= 1.1x
progress=continue
frame= 6216 fps= 27 q=23.0 size=  184576KiB time=00:04:08.68 bitrate=6080.3kbits/s speed= 1.1x    
frame=6216
fps=27.38
stream_0_0_q=23.0
bitrate=6080.3kbits/s
total_size=189005872
out_time_us=248680000
out_time_ms=248680000
out_time=00:04:08.680000
dup_frames=0
drop_frames=0
speed= 1.1x
progress=continue
frame= 6353 fps= 27 q=23.0 size=  188160KiB time=00:04:14.16 bitrate=6064.7kbits/s speed= 1.1x    
frame=6353
fps=27.37
stream_0_0_q=23.0
bitrate=6064.7kbits/s
total_size=192675888
out_time_us=254160000
out_time_ms=254160000
out_time=00:04:14.160000
dup_frames=0
drop_frames=0
speed= 1.1x
progress=continue
frame= 6508 fps= 27 q=23.0 size=  191488KiB time=00:04:20.36 bitrate=6025.0kbits/s speed= 1.1x    
frame=6508
fps=27.45
stream_0_0_q=23.0
bitrate=6025.0kbits/s
total_size=196083760
out_time_us=260360000
out_time_ms=260360000
out_time=00:04:20.360000
dup_frames=0
drop_frames=0
speed= 1.1x
progress=continue
frame= 6648 fps= 27 q=23.0 size=  194560KiB time=00:04:25.92 bitrate=5993.7kbits/s speed= 1.1x    
frame=6648
fps=27.46
stream_0_0_q=23.0
bitrate=5993.7kbits/s
total_size=199229488
out_time_us=265920000
out_time_ms=265920000
out_time=00:04:25.920000
dup_frames=0
drop_frames=0
speed= 1.1x
progress=continue
frame= 6802 fps= 28 q=23.0 size=  197888KiB time=00:04:32.12 bitrate=5957.3kbits/s speed= 1.1x    
frame=6802
fps=27.51
stream_0_0_q=23.0
bitrate=5957.3kbits/s
total_size=202637360
out_time_us=272120000
out_time_ms=272120000
out_time=00:04:32.120000
dup_frames=0
drop_frames=0
speed= 1.1x
progress=continue
frame= 6949 fps= 28 q=23.0 size=  200704KiB time=00:04:37.96 bitrate=5915.1kbits/s speed= 1.1x    
frame=6949
fps=27.55
stream_0_0_q=23.0
bitrate=5915.1kbits/s
total_size=205520944
out_time_us=277960000
out_time_ms=277960000
out_time=00:04:37.960000
dup_frames=0
drop_frames=0
speed= 1.1x
progress=continue
frame= 7087 fps= 28 q=23.0 size=  203776KiB time=00:04:43.48 bitrate=5888.7kbits/s speed= 1.1x    
frame=7087
fps=27.54
stream_0_0_q=23.0
bitrate=5888.7kbits/s
total_size=208666672
out_time_us=283480000
out_time_ms=283480000
out_time=00:04:43.480000
dup_frames=0
drop_frames=0
speed= 1.1x
progress=continue
frame= 7218 fps= 28 q=23.0 size=  208384KiB time=00:04:48.64 bitrate=5914.2kbits/s speed= 1.1x    
frame=7218
fps=27.52
stream_0_0_q=23.0
bitrate=5914.2kbits/s
total_size=213385264
out_time_us=288640000
out_time_ms=288640000
out_time=00:04:48.640000
dup_frames=0
drop_frames=0
speed= 1.1x
progress=continue
frame= 7347 fps= 27 q=23.0 size=  212224KiB time=00:04:53.92 bitrate=5915.0kbits/s speed= 1.1x    
frame=7347
fps=27.48
stream_0_0_q=23.0
bitrate=5915.0kbits/s
total_size=217317424
out_time_us=293920000
out_time_ms=293920000
out_time=00:04:53.920000
dup_frames=0
drop_frames=0
speed= 1.1x
progress=continue
frame= 7486 fps= 27 q=23.0 size=  215808KiB time=00:04:59.48 bitrate=5903.2kbits/s speed= 1.1x    
frame=7486
fps=27.48
stream_0_0_q=23.0
bitrate=5903.2kbits/s
total_size=220987440
out_time_us=299480000
out_time_ms=299480000
out_time=00:04:59.480000
dup_frames=0
drop_frames=0
speed= 1.1x
progress=continue
frame= 7617 fps= 27 q=23.0 size=  219392KiB time=00:05:04.72 bitrate=5898.1kbits/s speed= 1.1x    
frame=7617
fps=27.45
stream_0_0_q=23.0
bitrate=5898.1kbits/s
total_size=224657456
out_time_us=304720000
out_time_ms=304720000
out_time=00:05:04.720000
dup_frames=0
drop_frames=0
speed= 1.1x
progress=continue
frame= 7754 fps= 27 q=23.0 size=  222720KiB time=00:05:10.20 bitrate=5881.8kbits/s speed= 1.1x    
frame=7754
fps=27.45
stream_0_0_q=23.0
bitrate=5881.8kbits/s
total_size=228065328
out_time_us=310200000
out_time_ms=310200000
out_time=00:05:10.200000
dup_frames=0
drop_frames=0
speed= 1.1x
progress=continue
frame= 7888 fps= 27 q=23.0 size=  226560KiB time=00:05:15.56 bitrate=5881.5kbits/s speed= 1.1x    
frame=7888
fps=27.44
stream_0_0_q=23.0
bitrate=5881.5kbits/s
total_size=231997488
out_time_us=315560000
out_time_ms=315560000
out_time=00:05:15.560000
dup_frames=0
drop_frames=0
speed= 1.1x
progress=continue
frame= 8018 fps= 27 q=23.0 size=  230400KiB time=00:05:20.68 bitrate=5885.7kbits/s speed= 1.1x    
frame=8018
fps=27.41
stream_0_0_q=23.0
bitrate=5885.7kbits/s
total_size=235929648
out_time_us=320680000
out_time_ms=320680000
out_time=00:05:20.680000
dup_frames=0
drop_frames=0
speed= 1.1x
progress=continue
frame= 8148 fps= 27 q=23.0 size=  233984KiB time=00:05:25.96 bitrate=5880.5kbits/s speed= 1.1x    
frame=8148
fps=27.38
stream_0_0_q=23.0
bitrate=5880.5kbits/s
total_size=239599664
out_time_us=325960000
out_time_ms=325960000
out_time=00:05:25.960000
dup_frames=0
drop_frames=0
speed= 1.1x
progress=continue
frame= 8284 fps= 27 q=23.0 size=  237568KiB time=00:05:31.36 bitrate=5873.2kbits/s speed=1.09x    
frame=8284
fps=27.37
stream_0_0_q=23.0
bitrate=5873.2kbits/s
total_size=243269680
out_time_us=331360000
out_time_ms=331360000
out_time=00:05:31.360000
dup_frames=0
drop_frames=0
speed=1.09x
progress=continue
frame= 8429 fps= 27 q=23.0 size=  241152KiB time=00:05:37.20 bitrate=5858.6kbits/s speed= 1.1x    
frame=8429
fps=27.39
stream_0_0_q=23.0
bitrate=5858.6kbits/s
total_size=246939696
out_time_us=337200000
out_time_ms=337200000
out_time=00:05:37.200000
dup_frames=0
drop_frames=0
speed= 1.1x
progress=continue
frame= 8564 fps= 27 q=23.0 size=  245248KiB time=00:05:42.60 bitrate=5864.2kbits/s speed= 1.1x    
frame=8564
fps=27.39
stream_0_0_q=23.0
bitrate=5864.2kbits/s
total_size=251134000
out_time_us=342600000
out_time_ms=342600000
out_time=00:05:42.600000
dup_frames=0
drop_frames=0
speed= 1.1x
progress=continue
frame= 8694 fps= 27 q=23.0 size=  249600KiB time=00:05:47.80 bitrate=5879.0kbits/s speed=1.09x    
frame=8694
fps=27.36
stream_0_0_q=23.0
bitrate=5879.0kbits/s
total_size=255590448
out_time_us=347800000
out_time_ms=347800000
out_time=00:05:47.800000
dup_frames=0
drop_frames=0
speed=1.09x
progress=continue
frame= 8829 fps= 27 q=23.0 size=  253952KiB time=00:05:53.08 bitrate=5892.1kbits/s speed=1.09x    
frame=8829
fps=27.36
stream_0_0_q=23.0
bitrate=5892.1kbits/s
total_size=260046896
out_time_us=353080000
out_time_ms=353080000
out_time=00:05:53.080000
dup_frames=0
drop_frames=0
speed=1.09x
progress=continue
frame= 8980 fps= 27 q=23.0 size=  257536KiB time=00:05:59.20 bitrate=5873.4kbits/s speed= 1.1x    
frame=8980
fps=27.39
stream_0_0_q=23.0
bitrate=5873.4kbits/s
total_size=263716912
out_time_us=359200000
out_time_ms=359200000
out_time=00:05:59.200000
dup_frames=0
drop_frames=0
speed= 1.1x
progress=continue
frame= 9131 fps= 27 q=23.0 size=  260352KiB time=00:06:05.24 bitrate=5839.5kbits/s speed= 1.1x    
frame=9131
fps=27.43
stream_0_0_q=23.0
bitrate=5839.5kbits/s
total_size=266600496
out_time_us=365240000
out_time_ms=365240000
out_time=00:06:05.240000
dup_frames=0
drop_frames=0
speed= 1.1x
progress=continue
frame= 9267 fps= 27 q=23.0 size=  263168KiB time=00:06:10.72 bitrate=5815.4kbits/s speed= 1.1x    
frame=9267
fps=27.42
stream_0_0_q=23.0
bitrate=5815.4kbits/s
total_size=269484080
out_time_us=370720000
out_time_ms=370720000
out_time=00:06:10.720000
dup_frames=0
drop_frames=0
speed= 1.1x
progress=continue
frame= 9408 fps= 27 q=23.0 size=  267008KiB time=00:06:16.36 bitrate=5811.8kbits/s speed= 1.1x    
frame=9408
fps=27.43
stream_0_0_q=23.0
bitrate=5811.8kbits/s
total_size=273416240
out_time_us=376360000
out_time_ms=376360000
out_time=00:06:16.360000
dup_frames=0
drop_frames=0
speed= 1.1x
progress=continue
frame= 9555 fps= 27 q=23.0 size=  270592KiB time=00:06:22.24 bitrate=5799.2kbits/s speed= 1.1x    
frame=9555
fps=27.46
stream_0_0_q=23.0
bitrate=5799.2kbits/s
total_size=277086256
out_time_us=382240000
out_time_ms=382240000
out_time=00:06:22.240000
dup_frames=0
drop_frames=0
speed= 1.1x
progress=continue
frame= 9691 fps= 27 q=23.0 size=  273664KiB time=00:06:27.68 bitrate=5782.7kbits/s speed= 1.1x    
frame=9691
fps=27.46
stream_0_0_q=23.0
bitrate=5782.7kbits/s
total_size=280231984
out_time_us=387680000
out_time_ms=387680000
out_time=00:06:27.680000
dup_frames=0
drop_frames=0
speed= 1.1x
progress=continue
frame= 9791 fps= 27 q=23.0 size=  278016KiB time=00:06:31.64 bitrate=5815.3kbits/s speed=1.09x    
frame=9791
fps=27.35
stream_0_0_q=23.0
bitrate=5815.3kbits/s
total_size=284688432
out_time_us=391640000
out_time_ms=391640000
out_time=00:06:31.640000
dup_frames=0
drop_frames=0
speed=1.09x
progress=continue
frame= 9909 fps= 27 q=23.0 size=  282624KiB time=00:06:36.40 bitrate=5840.7kbits/s speed=1.09x    
frame=9909
fps=27.29
stream_0_0_q=23.0
bitrate=5840.7kbits/s
total_size=289407024
out_time_us=396400000
out_time_ms=396400000
out_time=00:06:36.400000
dup_frames=0
drop_frames=0
speed=1.09x
progress=continue
frame=10036 fps= 27 q=23.0 size=  286464KiB time=00:06:41.44 bitrate=5845.7kbits/s speed=1.09x    
frame=10036
fps=27.26
stream_0_0_q=23.0
bitrate=5845.7kbits/s
total_size=293339184
out_time_us=401440000
out_time_ms=401440000
out_time=00:06:41.440000
dup_frames=0
drop_frames=0
speed=1.09x
progress=continue
frame=10170 fps= 27 q=23.0 size=  290304KiB time=00:06:46.84 bitrate=5845.5kbits/s speed=1.09x    
frame=10170
fps=27.25
stream_0_0_q=23.0
bitrate=5845.5kbits/s
total_size=297271344
out_time_us=406840000
out_time_ms=406840000
out_time=00:06:46.840000
dup_frames=0
drop_frames=0
speed=1.09x
progress=continue
frame=10304 fps= 27 q=23.0 size=  294144KiB time=00:06:52.20 bitrate=5845.8kbits/s speed=1.09x    
frame=10304
fps=27.24
stream_0_0_q=23.0
bitrate=5845.8kbits/s
total_size=301203504
out_time_us=412200000
out_time_ms=412200000
out_time=00:06:52.200000
dup_frames=0
drop_frames=0
speed=1.09x
progress=continue
frame=10439 fps= 27 q=23.0 size=  298240KiB time=00:06:57.60 bitrate=5850.5kbits/s speed=1.09x    
frame=10439
fps=27.24
stream_0_0_q=23.0
bitrate=5850.5kbits/s
total_size=305397808
out_time_us=417600000
out_time_ms=417600000
out_time=00:06:57.600000
dup_frames=0
drop_frames=0
speed=1.09x
progress=continue
frame=10559 fps= 27 q=23.0 size=  301824KiB time=00:07:02.40 bitrate=5853.6kbits/s speed=1.09x    
frame=10559
fps=27.20
stream_0_0_q=23.0
bitrate=5853.6kbits/s
total_size=309067824
out_time_us=422400000
out_time_ms=422400000
out_time=00:07:02.400000
dup_frames=0
drop_frames=0
speed=1.09x
progress=continue
frame=10681 fps= 27 q=23.0 size=  306432KiB time=00:07:07.28 bitrate=5875.0kbits/s speed=1.09x    
frame=10681
fps=27.16
stream_0_0_q=23.0
bitrate=5875.0kbits/s
total_size=313786416
out_time_us=427280000
out_time_ms=427280000
out_time=00:07:07.280000
dup_frames=0
drop_frames=0
speed=1.09x
progress=continue
frame=10805 fps= 27 q=23.0 size=  311296KiB time=00:07:12.24 bitrate=5899.8kbits/s speed=1.09x    
frame=10805
fps=27.13
stream_0_0_q=23.0
bitrate=5899.8kbits/s
total_size=318767152
out_time_us=432240000
out_time_ms=432240000
out_time=00:07:12.240000
dup_frames=0
drop_frames=0
speed=1.09x
progress=continue
frame=10930 fps= 27 q=23.0 size=  315392KiB time=00:07:17.24 bitrate=5909.1kbits/s speed=1.08x    
frame=10930
fps=27.09
stream_0_0_q=23.0
bitrate=5909.1kbits/s
total_size=322961456
out_time_us=437240000
out_time_ms=437240000
out_time=00:07:17.240000
dup_frames=0
drop_frames=0
speed=1.08x
progress=continue
frame=11048 fps= 27 q=23.0 size=  318464KiB time=00:07:21.96 bitrate=5902.9kbits/s speed=1.08x    
frame=11048
fps=27.05
stream_0_0_q=23.0
bitrate=5902.9kbits/s
total_size=326107184
out_time_us=441960000
out_time_ms=441960000
out_time=00:07:21.960000
dup_frames=0
drop_frames=0
speed=1.08x
progress=continue
frame=11184 fps= 27 q=23.0 size=  322304KiB time=00:07:27.40 bitrate=5901.5kbits/s speed=1.08x    
frame=11184
fps=27.05
stream_0_0_q=23.0
bitrate=5901.5kbits/s
total_size=330039344
out_time_us=447400000
out_time_ms=447400000
out_time=00:07:27.400000
dup_frames=0
drop_frames=0
speed=1.08x
progress=continue
frame=11321 fps= 27 q=23.0 size=  325888KiB time=00:07:32.80 bitrate=5895.9kbits/s speed=1.08x    
frame=11321
fps=27.05
stream_0_0_q=23.0
bitrate=5895.9kbits/s
total_size=333709360
out_time_us=452800000
out_time_ms=452800000
out_time=00:07:32.800000
dup_frames=0
drop_frames=0
speed=1.08x
progress=continue
frame=11460 fps= 27 q=23.0 size=  329472KiB time=00:07:38.44 bitrate=5887.4kbits/s speed=1.08x    
frame=11460
fps=27.05
stream_0_0_q=23.0
bitrate=5887.4kbits/s
total_size=337379376
out_time_us=458440000
out_time_ms=458440000
out_time=00:07:38.440000
dup_frames=0
drop_frames=0
speed=1.08x
progress=continue
frame=11578 fps= 27 q=23.0 size=  333312KiB time=00:07:43.16 bitrate=5895.4kbits/s speed=1.08x    
frame=11578
fps=27.01
stream_0_0_q=23.0
bitrate=5895.4kbits/s
total_size=341311536
out_time_us=463160000
out_time_ms=463160000
out_time=00:07:43.160000
dup_frames=0
drop_frames=0
speed=1.08x
progress=continue
frame=11707 fps= 27 q=23.0 size=  336896KiB time=00:07:48.28 bitrate=5893.6kbits/s speed=1.08x    
frame=11707
fps=27.00
stream_0_0_q=23.0
bitrate=5893.6kbits/s
total_size=344981552
out_time_us=468280000
out_time_ms=468280000
out_time=00:07:48.280000
dup_frames=0
drop_frames=0
speed=1.08x
progress=continue
frame=11836 fps= 27 q=23.0 size=  340480KiB time=00:07:53.44 bitrate=5891.4kbits/s speed=1.08x    
frame=11836
fps=26.98
stream_0_0_q=23.0
bitrate=5891.4kbits/s
total_size=348651568
out_time_us=473440000
out_time_ms=473440000
out_time=00:07:53.440000
dup_frames=0
drop_frames=0
speed=1.08x
progress=continue
frame=11962 fps= 27 q=23.0 size=  344064KiB time=00:07:58.52 bitrate=5890.2kbits/s speed=1.08x    
frame=11962
fps=26.95
stream_0_0_q=23.0
bitrate=5890.2kbits/s
total_size=352321584
out_time_us=478520000
out_time_ms=478520000
out_time=00:07:58.520000
dup_frames=0
drop_frames=0
speed=1.08x
progress=continue
frame=12054 fps= 27 q=23.0 size=  348160KiB time=00:08:02.20 bitrate=5914.8kbits/s speed=1.07x    
frame=12054
fps=26.86
stream_0_0_q=23.0
bitrate=5914.8kbits/s
total_size=356515888
out_time_us=482200000
out_time_ms=482200000
out_time=00:08:02.200000
dup_frames=0
drop_frames=0
speed=1.07x
progress=continue
frame=12189 fps= 27 q=23.0 size=  351744KiB time=00:08:07.60 bitrate=5909.5kbits/s speed=1.07x    
frame=12189
fps=26.86
stream_0_0_q=23.0
bitrate=5909.5kbits/s
total_size=360185904
out_time_us=487600000
out_time_ms=487600000
out_time=00:08:07.600000
dup_frames=0
drop_frames=0
speed=1.07x
progress=continue
frame=12316 fps= 27 q=23.0 size=  355072KiB time=00:08:12.68 bitrate=5903.9kbits/s speed=1.07x    
frame=12316
fps=26.84
stream_0_0_q=23.0
bitrate=5903.9kbits/s
total_size=363593776
out_time_us=492680000
out_time_ms=492680000
out_time=00:08:12.680000
dup_frames=0
drop_frames=0
speed=1.07x
progress=continue
frame=12459 fps= 27 q=23.0 size=  358400KiB time=00:08:18.40 bitrate=5890.9kbits/s speed=1.07x    
frame=12459
fps=26.86
stream_0_0_q=23.0
bitrate=5890.9kbits/s
total_size=367001648
out_time_us=498400000
out_time_ms=498400000
out_time=00:08:18.400000
dup_frames=0
drop_frames=0
speed=1.07x
progress=continue
frame=12587 fps= 27 q=23.0 size=  361472KiB time=00:08:23.52 bitrate=5881.0kbits/s speed=1.07x    
frame=12587
fps=26.84
stream_0_0_q=23.0
bitrate=5881.0kbits/s
total_size=370147376
out_time_us=503520000
out_time_ms=503520000
out_time=00:08:23.520000
dup_frames=0
drop_frames=0
speed=1.07x
progress=continue
frame=12698 fps= 27 q=23.0 size=  365312KiB time=00:08:27.96 bitrate=5891.5kbits/s speed=1.07x    
frame=12698
fps=26.79
stream_0_0_q=23.0
bitrate=5891.5kbits/s
total_size=374079536
out_time_us=507960000
out_time_ms=507960000
out_time=00:08:27.960000
dup_frames=0
drop_frames=0
speed=1.07x
progress=continue
frame=12824 fps= 27 q=23.0 size=  369152KiB time=00:08:33.00 bitrate=5894.9kbits/s speed=1.07x    
frame=12824
fps=26.77
stream_0_0_q=23.0
bitrate=5894.9kbits/s
total_size=378011696
out_time_us=513000000
out_time_ms=513000000
out_time=00:08:33.000000
dup_frames=0
drop_frames=0
speed=1.07x
progress=continue
frame=12962 fps= 27 q=23.0 size=  373504KiB time=00:08:38.52 bitrate=5900.9kbits/s speed=1.07x    
frame=12962
fps=26.78
stream_0_0_q=23.0
bitrate=5900.9kbits/s
total_size=382468144
out_time_us=518520000
out_time_ms=518520000
out_time=00:08:38.520000
dup_frames=0
drop_frames=0
speed=1.07x
progress=continue
frame=13095 fps= 27 q=23.0 size=  377600KiB time=00:08:43.84 bitrate=5905.0kbits/s speed=1.07x    
frame=13095
fps=26.78
stream_0_0_q=23.0
bitrate=5905.0kbits/s
total_size=386662448
out_time_us=523840000
out_time_ms=523840000
out_time=00:08:43.840000
dup_frames=0
drop_frames=0
speed=1.07x
progress=continue
frame=13250 fps= 27 q=23.0 size=  380928KiB time=00:08:49.96 bitrate=5888.3kbits/s speed=1.07x    
frame=13250
fps=26.82
stream_0_0_q=23.0
bitrate=5888.3kbits/s
total_size=390070320
out_time_us=529960000
out_time_ms=529960000
out_time=00:08:49.960000
dup_frames=0
drop_frames=0
speed=1.07x
progress=continue
frame=13423 fps= 27 q=23.0 size=  384768KiB time=00:08:56.96 bitrate=5870.1kbits/s speed=1.08x    
frame=13423
fps=26.90
stream_0_0_q=23.0
bitrate=5870.1kbits/s
total_size=394002480
out_time_us=536960000
out_time_ms=536960000
out_time=00:08:56.960000
dup_frames=0
drop_frames=0
speed=1.08x
progress=continue
frame=13561 fps= 27 q=23.0 size=  388352KiB time=00:09:02.48 bitrate=5864.5kbits/s speed=1.08x    
frame=13561
fps=26.90
stream_0_0_q=23.0
bitrate=5864.5kbits/s
total_size=397672496
out_time_us=542480000
out_time_ms=542480000
out_time=00:09:02.480000
dup_frames=0
drop_frames=0
speed=1.08x
progress=continue
frame=13716 fps= 27 q=23.0 size=  392704KiB time=00:09:08.68 bitrate=5863.2kbits/s speed=1.08x    
frame=13716
fps=26.94
stream_0_0_q=23.0
bitrate=5863.2kbits/s
total_size=402128944
out_time_us=548680000
out_time_ms=548680000
out_time=00:09:08.680000
dup_frames=0
drop_frames=0
speed=1.08x
progress=continue
frame=13849 fps= 27 q=23.0 size=  396032KiB time=00:09:14.00 bitrate=5856.1kbits/s speed=1.08x    
frame=13849
fps=26.94
stream_0_0_q=23.0
bitrate=5856.1kbits/s
total_size=405536816
out_time_us=554000000
out_time_ms=554000000
out_time=00:09:14.000000
dup_frames=0
drop_frames=0
speed=1.08x
progress=continue
frame=14017 fps= 27 q=23.0 size=  399616KiB time=00:09:20.72 bitrate=5838.3kbits/s speed=1.08x    
frame=14017
fps=27.00
stream_0_0_q=23.0
bitrate=5838.3kbits/s
total_size=409206832
out_time_us=560720000
out_time_ms=560720000
out_time=00:09:20.720000
dup_frames=0
drop_frames=0
speed=1.08x
progress=continue
frame=14169 fps= 27 q=23.0 size=  403200KiB time=00:09:26.80 bitrate=5827.5kbits/s speed=1.08x    
frame=14169
fps=27.03
stream_0_0_q=23.0
bitrate=5827.5kbits/s
total_size=412876848
out_time_us=566800000
out_time_ms=566800000
out_time=00:09:26.800000
dup_frames=0
drop_frames=0
speed=1.08x
progress=continue
frame=14278 fps= 27 q=23.0 size=  406528KiB time=00:09:31.00 bitrate=5832.4kbits/s speed=1.08x    
frame=14278
fps=26.98
stream_0_0_q=23.0
bitrate=5832.4kbits/s
total_size=416284720
out_time_us=571000000
out_time_ms=571000000
out_time=00:09:31.000000
dup_frames=0
drop_frames=0
speed=1.08x
progress=continue
frame=14369 fps= 27 q=23.0 size=  409600KiB time=00:09:34.80 bitrate=5837.6kbits/s speed=1.08x    
frame=14369
fps=26.89
stream_0_0_q=23.0
bitrate=5837.6kbits/s
total_size=419430448
out_time_us=574800000
out_time_ms=574800000
out_time=00:09:34.800000
dup_frames=0
drop_frames=0
speed=1.08x
progress=continue
frame=14474 fps= 27 q=23.0 size=  412928KiB time=00:09:39.00 bitrate=5842.3kbits/s speed=1.07x    
frame=14474
fps=26.83
stream_0_0_q=23.0
bitrate=5842.3kbits/s
total_size=422838320
out_time_us=579000000
out_time_ms=579000000
out_time=00:09:39.000000
dup_frames=0
drop_frames=0
speed=1.07x
progress=continue
frame=14597 fps= 27 q=23.0 size=  416000KiB time=00:09:43.92 bitrate=5836.2kbits/s speed=1.07x    
frame=14597
fps=26.81
stream_0_0_q=23.0
bitrate=5836.2kbits/s
total_size=425984048
out_time_us=583920000
out_time_ms=583920000
out_time=00:09:43.920000
dup_frames=0
drop_frames=0
speed=1.07x
progress=continue
frame=14712 fps= 27 q=23.0 size=  419072KiB time=00:09:48.52 bitrate=5833.3kbits/s speed=1.07x    
frame=14712
fps=26.78
stream_0_0_q=23.0
bitrate=5833.3kbits/s
total_size=429129776
out_time_us=588520000
out_time_ms=588520000
out_time=00:09:48.520000
dup_frames=0
drop_frames=0
speed=1.07x
progress=continue
frame=14833 fps= 27 q=23.0 size=  422912KiB time=00:09:53.32 bitrate=5839.2kbits/s speed=1.07x    
frame=14833
fps=26.75
stream_0_0_q=23.0
bitrate=5839.2kbits/s
total_size=433061936
out_time_us=593320000
out_time_ms=593320000
out_time=00:09:53.320000
dup_frames=0
drop_frames=0
speed=1.07x
progress=continue
frame=14973 fps= 27 q=23.0 size=  426240KiB time=00:09:58.92 bitrate=5830.1kbits/s speed=1.07x    
frame=14973
fps=26.76
stream_0_0_q=23.0
bitrate=5830.1kbits/s
total_size=436469808
out_time_us=598920000
out_time_ms=598920000
out_time=00:09:58.920000
dup_frames=0
drop_frames=0
speed=1.07x
progress=continue
frame=15097 fps= 27 q=23.0 size=  429568KiB time=00:10:03.92 bitrate=5827.0kbits/s speed=1.07x    
frame=15097
fps=26.74
stream_0_0_q=23.0
bitrate=5827.0kbits/s
total_size=439877680
out_time_us=603920000
out_time_ms=603920000
out_time=00:10:03.920000
dup_frames=0
drop_frames=0
speed=1.07x
progress=continue
frame=15232 fps= 27 q=23.0 size=  433664KiB time=00:10:09.32 bitrate=5830.4kbits/s speed=1.07x    
frame=15232
fps=26.74
stream_0_0_q=23.0
bitrate=5830.4kbits/s
total_size=444071984
out_time_us=609320000
out_time_ms=609320000
out_time=00:10:09.320000
dup_frames=0
drop_frames=0
speed=1.07x
progress=continue
frame=15349 fps= 27 q=23.0 size=  436992KiB time=00:10:14.00 bitrate=5830.4kbits/s speed=1.07x    
frame=15349
fps=26.71
stream_0_0_q=23.0
bitrate=5830.4kbits/s
total_size=447479856
out_time_us=614000000
out_time_ms=614000000
out_time=00:10:14.000000
dup_frames=0
drop_frames=0
speed=1.07x
progress=continue
frame=15486 fps= 27 q=23.0 size=  440320KiB time=00:10:19.48 bitrate=5822.8kbits/s speed=1.07x    
frame=15486
fps=26.72
stream_0_0_q=23.0
bitrate=5822.8kbits/s
total_size=450887728
out_time_us=619480000
out_time_ms=619480000
out_time=00:10:19.480000
dup_frames=0
drop_frames=0
speed=1.07x
progress=continue
frame=15646 fps= 27 q=23.0 size=  443392KiB time=00:10:25.84 bitrate=5803.8kbits/s speed=1.07x    
frame=15646
fps=26.76
stream_0_0_q=23.0
bitrate=5803.8kbits/s
total_size=454033456
out_time_us=625840000
out_time_ms=625840000
out_time=00:10:25.840000
dup_frames=0
drop_frames=0
speed=1.07x
progress=continue
frame=15802 fps= 27 q=23.0 size=  446464KiB time=00:10:32.04 bitrate=5786.7kbits/s speed=1.07x    
frame=15802
fps=26.79
stream_0_0_q=23.0
bitrate=5786.7kbits/s
total_size=457179184
out_time_us=632040000
out_time_ms=632040000
out_time=00:10:32.040000
dup_frames=0
drop_frames=0
speed=1.07x
progress=continue
frame=15946 fps= 27 q=23.0 size=  449792KiB time=00:10:37.88 bitrate=5776.5kbits/s speed=1.07x    
frame=15946
fps=26.81
stream_0_0_q=23.0
bitrate=5776.5kbits/s
total_size=460587056
out_time_us=637880000
out_time_ms=637880000
out_time=00:10:37.880000
dup_frames=0
drop_frames=0
speed=1.07x
progress=continue
frame=16083 fps= 27 q=23.0 size=  453376KiB time=00:10:43.36 bitrate=5772.9kbits/s speed=1.07x    
frame=16083
fps=26.81
stream_0_0_q=23.0
bitrate=5772.9kbits/s
total_size=464257072
out_time_us=643360000
out_time_ms=643360000
out_time=00:10:43.360000
dup_frames=0
drop_frames=0
speed=1.07x
progress=continue
frame=16188 fps= 27 q=23.0 size=  456704KiB time=00:10:47.56 bitrate=5777.6kbits/s speed=1.07x    
frame=16188
fps=26.76
stream_0_0_q=23.0
bitrate=5777.6kbits/s
total_size=467664944
out_time_us=647560000
out_time_ms=647560000
out_time=00:10:47.560000
dup_frames=0
drop_frames=0
speed=1.07x
progress=continue
frame=16311 fps= 27 q=23.0 size=  460032KiB time=00:10:52.48 bitrate=5775.8kbits/s speed=1.07x    
frame=16311
fps=26.74
stream_0_0_q=23.0
bitrate=5775.8kbits/s
total_size=471072816
out_time_us=652480000
out_time_ms=652480000
out_time=00:10:52.480000
dup_frames=0
drop_frames=0
speed=1.07x
progress=continue
frame=16443 fps= 27 q=23.0 size=  462848KiB time=00:10:57.76 bitrate=5764.5kbits/s speed=1.07x    
frame=16443
fps=26.74
stream_0_0_q=23.0
bitrate=5764.5kbits/s
total_size=473956400
out_time_us=657760000
out_time_ms=657760000
out_time=00:10:57.760000
dup_frames=0
drop_frames=0
speed=1.07x
progress=continue
frame=16602 fps= 27 q=23.0 size=  466176KiB time=00:11:04.12 bitrate=5750.3kbits/s speed=1.07x    
frame=16602
fps=26.78
stream_0_0_q=23.0
bitrate=5750.3kbits/s
total_size=477364272
out_time_us=664120000
out_time_ms=664120000
out_time=00:11:04.120000
dup_frames=0
drop_frames=0
speed=1.07x
progress=continue
frame=16774 fps= 27 q=23.0 size=  469248KiB time=00:11:10.96 bitrate=5729.2kbits/s speed=1.07x    
frame=16774
fps=26.84
stream_0_0_q=23.0
bitrate=5729.2kbits/s
total_size=480510000
out_time_us=670960000
out_time_ms=670960000
out_time=00:11:10.960000
dup_frames=0
drop_frames=0
speed=1.07x
progress=continue
frame=16927 fps= 27 q=23.0 size=  472320KiB time=00:11:17.12 bitrate=5714.3kbits/s speed=1.07x    
frame=16927
fps=26.87
stream_0_0_q=23.0
bitrate=5714.3kbits/s
total_size=483655728
out_time_us=677120000
out_time_ms=677120000
out_time=00:11:17.120000
dup_frames=0
drop_frames=0
speed=1.07x
progress=continue
frame=17089 fps= 27 q=23.0 size=  475136KiB time=00:11:23.60 bitrate=5693.8kbits/s speed=1.08x    
frame=17089
fps=26.91
stream_0_0_q=23.0
bitrate=5693.8kbits/s
total_size=486539312
out_time_us=683600000
out_time_ms=683600000
out_time=00:11:23.600000
dup_frames=0
drop_frames=0
speed=1.08x
progress=continue
frame=17238 fps= 27 q=23.0 size=  478976KiB time=00:11:29.56 bitrate=5690.3kbits/s speed=1.08x    
frame=17238
fps=26.93
stream_0_0_q=23.0
bitrate=5690.3kbits/s
total_size=490471472
out_time_us=689560000
out_time_ms=689560000
out_time=00:11:29.560000
dup_frames=0
drop_frames=0
speed=1.08x
progress=continue
frame=17376 fps= 27 q=23.0 size=  482048KiB time=00:11:34.96 bitrate=5682.3kbits/s speed=1.08x    
frame=17376
fps=26.93
stream_0_0_q=23.0
bitrate=5682.3kbits/s
total_size=493617200
out_time_us=694960000
out_time_ms=694960000
out_time=00:11:34.960000
dup_frames=0
drop_frames=0
speed=1.08x
progress=continue
frame=17519 fps= 27 q=23.0 size=  485376KiB time=00:11:40.80 bitrate=5673.8kbits/s speed=1.08x    
frame=17519
fps=26.94
stream_0_0_q=23.0
bitrate=5673.8kbits/s
total_size=497025072
out_time_us=700800000
out_time_ms=700800000
out_time=00:11:40.800000
dup_frames=0
drop_frames=0
speed=1.08x
progress=continue
frame=17663 fps= 27 q=23.0 size=  488960KiB time=00:11:46.52 bitrate=5669.4kbits/s speed=1.08x    
frame=17663
fps=26.95
stream_0_0_q=23.0
bitrate=5669.4kbits/s
total_size=500695088
out_time_us=706520000
out_time_ms=706520000
out_time=00:11:46.520000
dup_frames=0
drop_frames=0
speed=1.08x
progress=continue
frame=17780 fps= 27 q=23.0 size=  492032KiB time=00:11:51.24 bitrate=5667.2kbits/s speed=1.08x    
frame=17780
fps=26.93
stream_0_0_q=23.0
bitrate=5667.2kbits/s
total_size=503840816
out_time_us=711240000
out_time_ms=711240000
out_time=00:11:51.240000
dup_frames=0
drop_frames=0
speed=1.08x
progress=continue
frame=17915 fps= 27 q=20.0 size=  495104KiB time=00:11:56.60 bitrate=5659.9kbits/s speed=1.08x    
frame=17915
fps=26.92
stream_0_0_q=20.0
bitrate=5659.9kbits/s
total_size=506986544
out_time_us=716600000
out_time_ms=716600000
out_time=00:11:56.600000
dup_frames=0
drop_frames=0
speed=1.08x
progress=continue
frame=18054 fps= 27 q=23.0 size=  498688KiB time=00:12:02.20 bitrate=5656.7kbits/s speed=1.08x    
frame=18054
fps=26.93
stream_0_0_q=23.0
bitrate=5656.7kbits/s
total_size=510656560
out_time_us=722200000
out_time_ms=722200000
out_time=00:12:02.200000
dup_frames=0
drop_frames=0
speed=1.08x
progress=continue
frame=18206 fps= 27 q=23.0 size=  501760KiB time=00:12:08.24 bitrate=5644.3kbits/s speed=1.08x    
frame=18206
fps=26.95
stream_0_0_q=23.0
bitrate=5644.3kbits/s
total_size=513802288
out_time_us=728240000
out_time_ms=728240000
out_time=00:12:08.240000
dup_frames=0
drop_frames=0
speed=1.08x
progress=continue
frame=18354 fps= 27 q=23.0 size=  504832KiB time=00:12:14.16 bitrate=5633.1kbits/s speed=1.08x    
frame=18354
fps=26.97
stream_0_0_q=23.0
bitrate=5633.1kbits/s
total_size=516948016
out_time_us=734160000
out_time_ms=734160000
out_time=00:12:14.160000
dup_frames=0
drop_frames=0
speed=1.08x
progress=continue
frame=18483 fps= 27 q=23.0 size=  507904KiB time=00:12:19.36 bitrate=5627.5kbits/s speed=1.08x    
frame=18483
fps=26.96
stream_0_0_q=23.0
bitrate=5627.5kbits/s
total_size=520093744
out_time_us=739360000
out_time_ms=739360000
out_time=00:12:19.360000
dup_frames=0
drop_frames=0
speed=1.08x
progress=continue
frame=18621 fps= 27 q=23.0 size=  510720KiB time=00:12:24.80 bitrate=5617.4kbits/s speed=1.08x    
frame=18621
fps=26.96
stream_0_0_q=23.0
bitrate=5617.4kbits/s
total_size=522977328
out_time_us=744800000
out_time_ms=744800000
out_time=00:12:24.800000
dup_frames=0
drop_frames=0
speed=1.08x
progress=continue
frame=18771 fps= 27 q=23.0 size=  513792KiB time=00:12:30.80 bitrate=5606.0kbits/s speed=1.08x    
frame=18771
fps=26.98
stream_0_0_q=23.0
bitrate=5606.0kbits/s
total_size=526123056
out_time_us=750800000
out_time_ms=750800000
out_time=00:12:30.800000
dup_frames=0
drop_frames=0
speed=1.08x
progress=continue
frame=18919 fps= 27 q=23.0 size=  516608KiB time=00:12:36.80 bitrate=5592.0kbits/s speed=1.08x    
frame=18919
fps=27.00
stream_0_0_q=23.0
bitrate=5592.0kbits/s
total_size=529006640
out_time_us=756800000
out_time_ms=756800000
out_time=00:12:36.800000
dup_frames=0
drop_frames=0
speed=1.08x
progress=continue
frame=19074 fps= 27 q=23.0 size=  519680KiB time=00:12:42.96 bitrate=5579.9kbits/s speed=1.08x    
frame=19074
fps=27.02
stream_0_0_q=23.0
bitrate=5579.9kbits/s
total_size=532152368
out_time_us=762960000
out_time_ms=762960000
out_time=00:12:42.960000
dup_frames=0
drop_frames=0
speed=1.08x
progress=continue
frame=19223 fps= 27 q=23.0 size=  522752KiB time=00:12:48.88 bitrate=5569.6kbits/s speed=1.08x    
frame=19223
fps=27.04
stream_0_0_q=23.0
bitrate=5569.6kbits/s
total_size=535298096
out_time_us=768880000
out_time_ms=768880000
out_time=00:12:48.880000
dup_frames=0
drop_frames=0
speed=1.08x
progress=continue
frame=19370 fps= 27 q=23.0 size=  525568KiB time=00:12:54.80 bitrate=5556.9kbits/s speed=1.08x    
frame=19370
fps=27.06
stream_0_0_q=23.0
bitrate=5556.9kbits/s
total_size=538181680
out_time_us=774800000
out_time_ms=774800000
out_time=00:12:54.800000
dup_frames=0
drop_frames=0
speed=1.08x
progress=continue
frame=19534 fps= 27 q=23.0 size=  527872KiB time=00:13:01.36 bitrate=5534.4kbits/s speed=1.08x    
frame=19534
fps=27.09
stream_0_0_q=23.0
bitrate=5534.4kbits/s
total_size=540540976
out_time_us=781360000
out_time_ms=781360000
out_time=00:13:01.360000
dup_frames=0
drop_frames=0
speed=1.08x
progress=continue
frame=19687 fps= 27 q=23.0 size=  530944KiB time=00:13:07.52 bitrate=5523.0kbits/s speed=1.08x    
frame=19687
fps=27.12
stream_0_0_q=23.0
bitrate=5523.0kbits/s
total_size=543686704
out_time_us=787520000
out_time_ms=787520000
out_time=00:13:07.520000
dup_frames=0
drop_frames=0
speed=1.08x
progress=continue
frame=19809 fps= 27 q=23.0 size=  533504KiB time=00:13:12.36 bitrate=5515.8kbits/s speed=1.08x    
frame=19809
fps=27.10
stream_0_0_q=23.0
bitrate=5515.8kbits/s
total_size=546308144
out_time_us=792360000
out_time_ms=792360000
out_time=00:13:12.360000
dup_frames=0
drop_frames=0
speed=1.08x
progress=continue
frame=19955 fps= 27 q=23.0 size=  536576KiB time=00:13:18.24 bitrate=5506.7kbits/s speed=1.08x    
frame=19955
fps=27.11
stream_0_0_q=23.0
bitrate=5506.7kbits/s
total_size=549453872
out_time_us=798240000
out_time_ms=798240000
out_time=00:13:18.240000
dup_frames=0
drop_frames=0
speed=1.08x
progress=continue
frame=20092 fps= 27 q=23.0 size=  539392KiB time=00:13:23.72 bitrate=5497.8kbits/s speed=1.08x    
frame=20092
fps=27.11
stream_0_0_q=23.0
bitrate=5497.8kbits/s
total_size=552337456
out_time_us=803720000
out_time_ms=803720000
out_time=00:13:23.720000
dup_frames=0
drop_frames=0
speed=1.08x
progress=continue
frame=20232 fps= 27 q=23.0 size=  542464KiB time=00:13:29.32 bitrate=5490.9kbits/s speed=1.08x    
frame=20232
fps=27.11
stream_0_0_q=23.0
bitrate=5490.9kbits/s
total_size=555483184
out_time_us=809320000
out_time_ms=809320000
out_time=00:13:29.320000
dup_frames=0
drop_frames=0
speed=1.08x
progress=continue
frame=20380 fps= 27 q=23.0 size=  545536KiB time=00:13:35.16 bitrate=5482.4kbits/s speed=1.09x    
frame=20380
fps=27.13
stream_0_0_q=23.0
bitrate=5482.4kbits/s
total_size=558628912
out_time_us=815160000
out_time_ms=815160000
out_time=00:13:35.160000
dup_frames=0
drop_frames=0
speed=1.09x
progress=continue
frame=20513 fps= 27 q=23.0 size=  548608KiB time=00:13:40.56 bitrate=5477.0kbits/s speed=1.09x    
frame=20513
fps=27.13
stream_0_0_q=23.0
bitrate=5477.0kbits/s
total_size=561774640
out_time_us=820560000
out_time_ms=820560000
out_time=00:13:40.560000
dup_frames=0
drop_frames=0
speed=1.09x
progress=continue
frame=20709 fps= 27 q=23.0 size=  551424KiB time=00:13:48.40 bitrate=5453.0kbits/s speed=1.09x    
frame=20709
fps=27.20
stream_0_0_q=23.0
bitrate=5453.0kbits/s
total_size=564658224
out_time_us=828400000
out_time_ms=828400000
out_time=00:13:48.400000
dup_frames=0
drop_frames=0
speed=1.09x
progress=continue
frame=20864 fps= 27 q=23.0 size=  553984KiB time=00:13:54.60 bitrate=5437.6kbits/s speed=1.09x    
frame=20864
fps=27.23
stream_0_0_q=23.0
bitrate=5437.6kbits/s
total_size=567279664
out_time_us=834600000
out_time_ms=834600000
out_time=00:13:54.600000
dup_frames=0
drop_frames=0
speed=1.09x
progress=continue
frame=20992 fps= 27 q=23.0 size=  557568KiB time=00:13:59.68 bitrate=5439.7kbits/s speed=1.09x    
frame=20992
fps=27.22
stream_0_0_q=23.0
bitrate=5439.7kbits/s
total_size=570949680
out_time_us=839680000
out_time_ms=839680000
out_time=00:13:59.680000
dup_frames=0
drop_frames=0
speed=1.09x
progress=continue
frame=21136 fps= 27 q=23.0 size=  560896KiB time=00:14:05.48 bitrate=5434.6kbits/s speed=1.09x    
frame=21136
fps=27.23
stream_0_0_q=23.0
bitrate=5434.6kbits/s
total_size=574357552
out_time_us=845480000
out_time_ms=845480000
out_time=00:14:05.480000
dup_frames=0
drop_frames=0
speed=1.09x
progress=continue
frame=21304 fps= 27 q=23.0 size=  564480KiB time=00:14:12.20 bitrate=5426.2kbits/s speed=1.09x    
frame=21304
fps=27.27
stream_0_0_q=23.0
bitrate=5426.2kbits/s
total_size=578027568
out_time_us=852200000
out_time_ms=852200000
out_time=00:14:12.200000
dup_frames=0
drop_frames=0
speed=1.09x
progress=continue
frame=21454 fps= 27 q=23.0 size=  567552KiB time=00:14:18.20 bitrate=5417.6kbits/s speed=1.09x    
frame=21454
fps=27.28
stream_0_0_q=23.0
bitrate=5417.6kbits/s
total_size=581173296
out_time_us=858200000
out_time_ms=858200000
out_time=00:14:18.200000
dup_frames=0
drop_frames=0
speed=1.09x
progress=continue
frame=21590 fps= 27 q=20.0 size=  570624KiB time=00:14:23.64 bitrate=5412.6kbits/s speed=1.09x    
frame=21590
fps=27.28
stream_0_0_q=20.0
bitrate=5412.6kbits/s
total_size=584319024
out_time_us=863640000
out_time_ms=863640000
out_time=00:14:23.640000
dup_frames=0
drop_frames=0
speed=1.09x
progress=continue
frame=21747 fps= 27 q=23.0 size=  573440KiB time=00:14:29.92 bitrate=5400.1kbits/s speed=1.09x    
frame=21747
fps=27.31
stream_0_0_q=23.0
bitrate=5400.1kbits/s
total_size=587202608
out_time_us=869920000
out_time_ms=869920000
out_time=00:14:29.920000
dup_frames=0
drop_frames=0
speed=1.09x
progress=continue
frame=21874 fps= 27 q=23.0 size=  576256KiB time=00:14:35.00 bitrate=5395.1kbits/s speed=1.09x    
frame=21874
fps=27.29
stream_0_0_q=23.0
bitrate=5395.1kbits/s
total_size=590086192
out_time_us=875000000
out_time_ms=875000000
out_time=00:14:35.000000
dup_frames=0
drop_frames=0
speed=1.09x
progress=continue
frame=22005 fps= 27 q=23.0 size=  579584KiB time=00:14:40.24 bitrate=5393.9kbits/s speed=1.09x    
frame=22005
fps=27.29
stream_0_0_q=23.0
bitrate=5393.9kbits/s
total_size=593494064
out_time_us=880240000
out_time_ms=880240000
out_time=00:14:40.240000
dup_frames=0
drop_frames=0
speed=1.09x
progress=continue
frame=22146 fps= 27 q=23.0 size=  582656KiB time=00:14:45.84 bitrate=5388.2kbits/s speed=1.09x    
frame=22146
fps=27.29
stream_0_0_q=23.0
bitrate=5388.2kbits/s
total_size=596639792
out_time_us=885840000
out_time_ms=885840000
out_time=00:14:45.840000
dup_frames=0
drop_frames=0
speed=1.09x
progress=continue
frame=22307 fps= 27 q=23.0 size=  585728KiB time=00:14:52.32 bitrate=5377.3kbits/s speed=1.09x    
frame=22307
fps=27.32
stream_0_0_q=23.0
bitrate=5377.3kbits/s
total_size=599785520
out_time_us=892320000
out_time_ms=892320000
out_time=00:14:52.320000
dup_frames=0
drop_frames=0
speed=1.09x
progress=continue
frame=22439 fps= 27 q=23.0 size=  589056KiB time=00:14:57.60 bitrate=5376.1kbits/s speed=1.09x    
frame=22439
fps=27.31
stream_0_0_q=23.0
bitrate=5376.1kbits/s
total_size=603193392
out_time_us=897600000
out_time_ms=897600000
out_time=00:14:57.600000
dup_frames=0
drop_frames=0
speed=1.09x
progress=continue
frame=22603 fps= 27 q=23.0 size=  592384KiB time=00:15:04.16 bitrate=5367.2kbits/s speed=1.09x    
frame=22603
fps=27.34
stream_0_0_q=23.0
bitrate=5367.2kbits/s
total_size=606601264
out_time_us=904160000
out_time_ms=904160000
out_time=00:15:04.160000
dup_frames=0
drop_frames=0
speed=1.09x
progress=continue
frame=22772 fps= 27 q=23.0 size=  595456KiB time=00:15:10.92 bitrate=5355.0kbits/s speed= 1.1x    
frame=22772
fps=27.38
stream_0_0_q=23.0
bitrate=5355.0kbits/s
total_size=609746992
out_time_us=910920000
out_time_ms=910920000
out_time=00:15:10.920000
dup_frames=0
drop_frames=0
speed= 1.1x
progress=continue
frame=22913 fps= 27 q=23.0 size=  598528KiB time=00:15:16.56 bitrate=5349.5kbits/s speed= 1.1x    
frame=22913
fps=27.39
stream_0_0_q=23.0
bitrate=5349.5kbits/s
total_size=612892720
out_time_us=916560000
out_time_ms=916560000
out_time=00:15:16.560000
dup_frames=0
drop_frames=0
speed= 1.1x
progress=continue
frame=23032 fps= 27 q=23.0 size=  602112KiB time=00:15:21.32 bitrate=5353.7kbits/s speed=1.09x    
frame=23032
fps=27.36
stream_0_0_q=23.0
bitrate=5353.7kbits/s
total_size=616562736
out_time_us=921320000
out_time_ms=921320000
out_time=00:15:21.320000
dup_frames=0
drop_frames=0
speed=1.09x
progress=continue
frame=23153 fps= 27 q=23.0 size=  605440KiB time=00:15:26.16 bitrate=5355.2kbits/s speed=1.09x    
frame=23153
fps=27.34
stream_0_0_q=23.0
bitrate=5355.2kbits/s
total_size=619970608
out_time_us=926160000
out_time_ms=926160000
out_time=00:15:26.160000
dup_frames=0
drop_frames=0
speed=1.09x
progress=continue
frame=23297 fps= 27 q=23.0 size=  608512KiB time=00:15:31.88 bitrate=5349.3kbits/s speed=1.09x    
frame=23297
fps=27.35
stream_0_0_q=23.0
bitrate=5349.3kbits/s
total_size=623116336
out_time_us=931880000
out_time_ms=931880000
out_time=00:15:31.880000
dup_frames=0
drop_frames=0
speed=1.09x
progress=continue
frame=23453 fps= 27 q=23.0 size=  611840KiB time=00:15:38.16 bitrate=5342.6kbits/s speed=1.09x    
frame=23453
fps=27.37
stream_0_0_q=23.0
bitrate=5342.6kbits/s
total_size=626524208
out_time_us=938160000
out_time_ms=938160000
out_time=00:15:38.160000
dup_frames=0
drop_frames=0
speed=1.09x
progress=continue
frame=23609 fps= 27 q=23.0 size=  615168KiB time=00:15:44.40 bitrate=5336.1kbits/s speed= 1.1x    
frame=23609
fps=27.40
stream_0_0_q=23.0
bitrate=5336.1kbits/s
total_size=629932080
out_time_us=944400000
out_time_ms=944400000
out_time=00:15:44.400000
dup_frames=0
drop_frames=0
speed= 1.1x
progress=continue
frame=23759 fps= 27 q=23.0 size=  617984KiB time=00:15:50.40 bitrate=5326.7kbits/s speed= 1.1x    
frame=23759
fps=27.41
stream_0_0_q=23.0
bitrate=5326.7kbits/s
total_size=632815664
out_time_us=950400000
out_time_ms=950400000
out_time=00:15:50.400000
dup_frames=0
drop_frames=0
speed= 1.1x
progress=continue
frame=23898 fps= 27 q=23.0 size=  621056KiB time=00:15:55.96 bitrate=5322.1kbits/s speed= 1.1x    
frame=23898
fps=27.41
stream_0_0_q=23.0
bitrate=5322.1kbits/s
total_size=635961392
out_time_us=955960000
out_time_ms=955960000
out_time=00:15:55.960000
dup_frames=0
drop_frames=0
speed= 1.1x
progress=continue
frame=24045 fps= 27 q=23.0 size=  624384KiB time=00:16:01.76 bitrate=5318.3kbits/s speed= 1.1x    
frame=24045
fps=27.42
stream_0_0_q=23.0
bitrate=5318.3kbits/s
total_size=639369264
out_time_us=961760000
out_time_ms=961760000
out_time=00:16:01.760000
dup_frames=0
drop_frames=0
speed= 1.1x
progress=continue
frame=24218 fps= 27 q=23.0 size=  627200KiB time=00:16:08.72 bitrate=5303.9kbits/s speed= 1.1x    
frame=24218
fps=27.46
stream_0_0_q=23.0
bitrate=5303.9kbits/s
total_size=642252848
out_time_us=968720000
out_time_ms=968720000
out_time=00:16:08.720000
dup_frames=0
drop_frames=0
speed= 1.1x
progress=continue
frame=24409 fps= 28 q=23.0 size=  629760KiB time=00:16:16.40 bitrate=5283.7kbits/s speed= 1.1x    
frame=24409
fps=27.52
stream_0_0_q=23.0
bitrate=5283.7kbits/s
total_size=644874288
out_time_us=976400000
out_time_ms=976400000
out_time=00:16:16.400000
dup_frames=0
drop_frames=0
speed= 1.1x
progress=continue
frame=24588 fps= 28 q=23.0 size=  632576KiB time=00:16:23.56 bitrate=5268.7kbits/s speed= 1.1x    
frame=24588
fps=27.57
stream_0_0_q=23.0
bitrate=5268.7kbits/s
total_size=647757872
out_time_us=983560000
out_time_ms=983560000
out_time=00:16:23.560000
dup_frames=0
drop_frames=0
speed= 1.1x
progress=continue
frame=24755 fps= 28 q=23.0 size=  635392KiB time=00:16:30.24 bitrate=5256.4kbits/s speed= 1.1x    
frame=24755
fps=27.60
stream_0_0_q=23.0
bitrate=5256.4kbits/s
total_size=650641456
out_time_us=990240000
out_time_ms=990240000
out_time=00:16:30.240000
dup_frames=0
drop_frames=0
speed= 1.1x
progress=continue
frame=24918 fps= 28 q=23.0 size=  638464KiB time=00:16:36.76 bitrate=5247.3kbits/s speed=1.11x    
frame=24918
fps=27.62
stream_0_0_q=23.0
bitrate=5247.3kbits/s
total_size=653787184
out_time_us=996760000
out_time_ms=996760000
out_time=00:16:36.760000
dup_frames=0
drop_frames=0
speed=1.11x
progress=continue
frame=25060 fps= 28 q=23.0 size=  642560KiB time=00:16:42.44 bitrate=5251.0kbits/s speed=1.11x    
frame=25060
fps=27.63
stream_0_0_q=23.0
bitrate=5251.0kbits/s
total_size=657981488
out_time_us=1002440000
out_time_ms=1002440000
out_time=00:16:42.440000
dup_frames=0
drop_frames=0
speed=1.11x
progress=continue
frame=25174 fps= 28 q=23.0 size=  646912KiB time=00:16:47.00 bitrate=5262.7kbits/s speed= 1.1x    
frame=25174
fps=27.60
stream_0_0_q=23.0
bitrate=5262.7kbits/s
total_size=662437936
out_time_us=1007000000
out_time_ms=1007000000
out_time=00:16:47.000000
dup_frames=0
drop_frames=0
speed= 1.1x
progress=continue
frame=25296 fps= 28 q=23.0 size=  650240KiB time=00:16:51.88 bitrate=5264.2kbits/s speed= 1.1x    
frame=25296
fps=27.58
stream_0_0_q=23.0
bitrate=5264.2kbits/s
total_size=665845808
out_time_us=1011880000
out_time_ms=1011880000
out_time=00:16:51.880000
dup_frames=0
drop_frames=0
speed= 1.1x
progress=continue
frame=25412 fps= 28 q=23.0 size=  654080KiB time=00:16:56.48 bitrate=5271.4kbits/s speed= 1.1x    
frame=25412
fps=27.55
stream_0_0_q=23.0
bitrate=5271.4kbits/s
total_size=669777968
out_time_us=1016480000
out_time_ms=1016480000
out_time=00:16:56.480000
dup_frames=0
drop_frames=0
speed= 1.1x
progress=continue
frame=25523 fps= 28 q=23.0 size=  658432KiB time=00:17:00.96 bitrate=5283.1kbits/s speed= 1.1x    
frame=25523
fps=27.52
stream_0_0_q=23.0
bitrate=5283.1kbits/s
total_size=674234416
out_time_us=1020960000
out_time_ms=1020960000
out_time=00:17:00.960000
dup_frames=0
drop_frames=0
speed= 1.1x
progress=continue
frame=25647 fps= 28 q=23.0 size=  662272KiB time=00:17:05.88 bitrate=5288.5kbits/s speed= 1.1x    
frame=25647
fps=27.51
stream_0_0_q=23.0
bitrate=5288.5kbits/s
total_size=678166576
out_time_us=1025880000
out_time_ms=1025880000
out_time=00:17:05.880000
dup_frames=0
drop_frames=0
speed= 1.1x
progress=continue
frame=25780 fps= 28 q=23.0 size=  666624KiB time=00:17:11.24 bitrate=5295.6kbits/s speed= 1.1x    
frame=25780
fps=27.50
stream_0_0_q=23.0
bitrate=5295.6kbits/s
total_size=682623024
out_time_us=1031240000
out_time_ms=1031240000
out_time=00:17:11.240000
dup_frames=0
drop_frames=0
speed= 1.1x
progress=continue
frame=25907 fps= 27 q=23.0 size=  670720KiB time=00:17:16.28 bitrate=5302.2kbits/s speed= 1.1x    
frame=25907
fps=27.49
stream_0_0_q=23.0
bitrate=5302.2kbits/s
total_size=686817328
out_time_us=1036280000
out_time_ms=1036280000
out_time=00:17:16.280000
dup_frames=0
drop_frames=0
speed= 1.1x
progress=continue
frame=26019 fps= 27 q=23.0 size=  674560KiB time=00:17:20.76 bitrate=5309.6kbits/s speed= 1.1x    
frame=26019
fps=27.46
stream_0_0_q=23.0
bitrate=5309.6kbits/s
total_size=690749488
out_time_us=1040760000
out_time_ms=1040760000
out_time=00:17:20.760000
dup_frames=0
drop_frames=0
speed= 1.1x
progress=continue
frame=26155 fps= 27 q=23.0 size=  677888KiB time=00:17:26.20 bitrate=5308.0kbits/s speed= 1.1x    
frame=26155
fps=27.46
stream_0_0_q=23.0
bitrate=5308.0kbits/s
total_size=694157360
out_time_us=1046200000
out_time_ms=1046200000
out_time=00:17:26.200000
dup_frames=0
drop_frames=0
speed= 1.1x
progress=continue
frame=26277 fps= 27 q=23.0 size=  682496KiB time=00:17:31.12 bitrate=5319.1kbits/s speed= 1.1x    
frame=26277
fps=27.44
stream_0_0_q=23.0
bitrate=5319.1kbits/s
total_size=698875952
out_time_us=1051120000
out_time_ms=1051120000
out_time=00:17:31.120000
dup_frames=0
drop_frames=0
speed= 1.1x
progress=continue
frame=26410 fps= 27 q=23.0 size=  686592KiB time=00:17:36.44 bitrate=5324.1kbits/s speed= 1.1x    
frame=26410
fps=27.43
stream_0_0_q=23.0
bitrate=5324.1kbits/s
total_size=703070256
out_time_us=1056440000
out_time_ms=1056440000
out_time=00:17:36.440000
dup_frames=0
drop_frames=0
speed= 1.1x
progress=continue
frame=26532 fps= 27 q=23.0 size=  690688KiB time=00:17:41.32 bitrate=5331.2kbits/s speed= 1.1x    
frame=26532
fps=27.42
stream_0_0_q=23.0
bitrate=5331.2kbits/s
total_size=707264560
out_time_us=1061320000
out_time_ms=1061320000
out_time=00:17:41.320000
dup_frames=0
drop_frames=0
speed= 1.1x
progress=continue
frame=26679 fps= 27 q=23.0 size=  694272KiB time=00:17:47.16 bitrate=5329.5kbits/s speed= 1.1x    
frame=26679
fps=27.43
stream_0_0_q=23.0
bitrate=5329.5kbits/s
total_size=710934576
out_time_us=1067160000
out_time_ms=1067160000
out_time=00:17:47.160000
dup_frames=0
drop_frames=0
speed= 1.1x
progress=continue
frame=26808 fps= 27 q=23.0 size=  697344KiB time=00:17:52.36 bitrate=5327.2kbits/s speed= 1.1x    
frame=26808
fps=27.42
stream_0_0_q=23.0
bitrate=5327.2kbits/s
total_size=714080304
out_time_us=1072360000
out_time_ms=1072360000
out_time=00:17:52.360000
dup_frames=0
drop_frames=0
speed= 1.1x
progress=continue
frame=26954 fps= 27 q=23.0 size=  701184KiB time=00:17:58.20 bitrate=5327.5kbits/s speed= 1.1x    
frame=26954
fps=27.43
stream_0_0_q=23.0
bitrate=5327.5kbits/s
total_size=718012464
out_time_us=1078200000
out_time_ms=1078200000
out_time=00:17:58.200000
dup_frames=0
drop_frames=0
speed= 1.1x
progress=continue
frame=27078 fps= 27 q=23.0 size=  704768KiB time=00:18:03.16 bitrate=5330.2kbits/s speed= 1.1x    
frame=27078
fps=27.41
stream_0_0_q=23.0
bitrate=5330.2kbits/s
total_size=721682480
out_time_us=1083160000
out_time_ms=1083160000
out_time=00:18:03.160000
dup_frames=0
drop_frames=0
speed= 1.1x
progress=continue
frame=27207 fps= 27 q=23.0 size=  708352KiB time=00:18:08.28 bitrate=5332.1kbits/s speed= 1.1x    
frame=27207
fps=27.40
stream_0_0_q=23.0
bitrate=5332.1kbits/s
total_size=725352496
out_time_us=1088280000
out_time_ms=1088280000
out_time=00:18:08.280000
dup_frames=0
drop_frames=0
speed= 1.1x
progress=continue
frame=27338 fps= 27 q=23.0 size=  711680KiB time=00:18:13.52 bitrate=5331.5kbits/s speed= 1.1x    
frame=27338
fps=27.40
stream_0_0_q=23.0
bitrate=5331.5kbits/s
total_size=728760368
out_time_us=1093520000
out_time_ms=1093520000
out_time=00:18:13.520000
dup_frames=0
drop_frames=0
speed= 1.1x
progress=continue
frame=27460 fps= 27 q=23.0 size=  715520KiB time=00:18:18.44 bitrate=5336.2kbits/s speed= 1.1x    
frame=27460
fps=27.38
stream_0_0_q=23.0
bitrate=5336.2kbits/s
total_size=732692528
out_time_us=1098440000
out_time_ms=1098440000
out_time=00:18:18.440000
dup_frames=0
drop_frames=0
speed= 1.1x
progress=continue
frame=27607 fps= 27 q=23.0 size=  719360KiB time=00:18:24.04 bitrate=5337.7kbits/s speed= 1.1x    
frame=27607
fps=27.39
stream_0_0_q=23.0
bitrate=5337.7kbits/s
total_size=736624688
out_time_us=1104040000
out_time_ms=1104040000
out_time=00:18:24.040000
dup_frames=0
drop_frames=0
speed= 1.1x
progress=continue
frame=27762 fps= 27 q=23.0 size=  722688KiB time=00:18:30.48 bitrate=5331.3kbits/s speed= 1.1x    
frame=27762
fps=27.40
stream_0_0_q=23.0
bitrate=5331.3kbits/s
total_size=740032560
out_time_us=1110480000
out_time_ms=1110480000
out_time=00:18:30.480000
dup_frames=0
drop_frames=0
speed= 1.1x
progress=continue
frame=27919 fps= 27 q=23.0 size=  726016KiB time=00:18:36.80 bitrate=5325.5kbits/s speed= 1.1x    
frame=27919
fps=27.42
stream_0_0_q=23.0
bitrate=5325.5kbits/s
total_size=743440432
out_time_us=1116800000
out_time_ms=1116800000
out_time=00:18:36.800000
dup_frames=0
drop_frames=0
speed= 1.1x
progress=continue
frame=28058 fps= 27 q=23.0 size=  729344KiB time=00:18:42.36 bitrate=5323.4kbits/s speed= 1.1x    
frame=28058
fps=27.42
stream_0_0_q=23.0
bitrate=5323.4kbits/s
total_size=746848304
out_time_us=1122360000
out_time_ms=1122360000
out_time=00:18:42.360000
dup_frames=0
drop_frames=0
speed= 1.1x
progress=continue
frame=28194 fps= 27 q=23.0 size=  733440KiB time=00:18:47.76 bitrate=5327.7kbits/s speed= 1.1x    
frame=28194
fps=27.42
stream_0_0_q=23.0
bitrate=5327.7kbits/s
total_size=751042608
out_time_us=1127760000
out_time_ms=1127760000
out_time=00:18:47.760000
dup_frames=0
drop_frames=0
speed= 1.1x
progress=continue
frame=28337 fps= 27 q=23.0 size=  737024KiB time=00:18:53.52 bitrate=5326.5kbits/s speed= 1.1x    
frame=28337
fps=27.43
stream_0_0_q=23.0
bitrate=5326.5kbits/s
total_size=754712624
out_time_us=1133520000
out_time_ms=1133520000
out_time=00:18:53.520000
dup_frames=0
drop_frames=0
speed= 1.1x
progress=continue
frame=28485 fps= 27 q=23.0 size=  740608KiB time=00:18:59.44 bitrate=5324.6kbits/s speed= 1.1x    
frame=28485
fps=27.44
stream_0_0_q=23.0
bitrate=5324.6kbits/s
total_size=758382640
out_time_us=1139440000
out_time_ms=1139440000
out_time=00:18:59.440000
dup_frames=0
drop_frames=0
speed= 1.1x
progress=continue
frame=28645 fps= 27 q=23.0 size=  744704KiB time=00:19:05.72 bitrate=5324.7kbits/s speed= 1.1x    
frame=28645
fps=27.46
stream_0_0_q=23.0
bitrate=5324.7kbits/s
total_size=762576944
out_time_us=1145720000
out_time_ms=1145720000
out_time=00:19:05.720000
dup_frames=0
drop_frames=0
speed= 1.1x
progress=continue
frame=28793 fps= 27 q=23.0 size=  748032KiB time=00:19:11.76 bitrate=5320.4kbits/s speed= 1.1x    
frame=28793
fps=27.47
stream_0_0_q=23.0
bitrate=5320.4kbits/s
total_size=765984816
out_time_us=1151760000
out_time_ms=1151760000
out_time=00:19:11.760000
dup_frames=0
drop_frames=0
speed= 1.1x
progress=continue
frame=28935 fps= 27 q=23.0 size=  751360KiB time=00:19:17.44 bitrate=5317.9kbits/s speed= 1.1x    
frame=28935
fps=27.47
stream_0_0_q=23.0
bitrate=5317.9kbits/s
total_size=769392688
out_time_us=1157440000
out_time_ms=1157440000
out_time=00:19:17.440000
dup_frames=0
drop_frames=0
speed= 1.1x
progress=continue
frame=29079 fps= 27 q=23.0 size=  754944KiB time=00:19:23.20 bitrate=5316.8kbits/s speed= 1.1x    
frame=29079
fps=27.47
stream_0_0_q=23.0
bitrate=5316.8kbits/s
total_size=773062704
out_time_us=1163200000
out_time_ms=1163200000
out_time=00:19:23.200000
dup_frames=0
drop_frames=0
speed= 1.1x
progress=continue
frame=29216 fps= 27 q=23.0 size=  758272KiB time=00:19:28.56 bitrate=5315.7kbits/s speed= 1.1x    
frame=29216
fps=27.47
stream_0_0_q=23.0
bitrate=5315.7kbits/s
total_size=776470576
out_time_us=1168560000
out_time_ms=1168560000
out_time=00:19:28.560000
dup_frames=0
drop_frames=0
speed= 1.1x
progress=continue
frame=29363 fps= 27 q=23.0 size=  762112KiB time=00:19:34.56 bitrate=5315.4kbits/s speed= 1.1x    
frame=29363
fps=27.48
stream_0_0_q=23.0
bitrate=5315.4kbits/s
total_size=780402736
out_time_us=1174560000
out_time_ms=1174560000
out_time=00:19:34.560000
dup_frames=0
drop_frames=0
speed= 1.1x
progress=continue
frame=29510 fps= 27 q=23.0 size=  765952KiB time=00:19:40.40 bitrate=5315.7kbits/s speed= 1.1x    
frame=29510
fps=27.49
stream_0_0_q=23.0
bitrate=5315.7kbits/s
total_size=784334896
out_time_us=1180400000
out_time_ms=1180400000
out_time=00:19:40.400000
dup_frames=0
drop_frames=0
speed= 1.1x
progress=continue
frame=29645 fps= 27 q=23.0 size=  769792KiB time=00:19:45.72 bitrate=5318.4kbits/s speed= 1.1x    
frame=29645
fps=27.48
stream_0_0_q=23.0
bitrate=5318.4kbits/s
total_size=788267056
out_time_us=1185720000
out_time_ms=1185720000
out_time=00:19:45.720000
dup_frames=0
drop_frames=0
speed= 1.1x
progress=continue
frame=29792 fps= 27 q=23.0 size=  773376KiB time=00:19:51.64 bitrate=5316.6kbits/s speed= 1.1x    
frame=29792
fps=27.49
stream_0_0_q=23.0
bitrate=5316.6kbits/s
total_size=791937072
out_time_us=1191640000
out_time_ms=1191640000
out_time=00:19:51.640000
dup_frames=0
drop_frames=0
speed= 1.1x
progress=continue
frame=29922 fps= 27 q=23.0 size=  776704KiB time=00:19:56.88 bitrate=5316.1kbits/s speed= 1.1x    
frame=29922
fps=27.48
stream_0_0_q=23.0
bitrate=5316.1kbits/s
total_size=795344944
out_time_us=1196880000
out_time_ms=1196880000
out_time=00:19:56.880000
dup_frames=0
drop_frames=0
speed= 1.1x
progress=continue
frame=30065 fps= 27 q=20.0 size=  780544KiB time=00:20:02.60 bitrate=5317.0kbits/s speed= 1.1x    
frame=30065
fps=27.49
stream_0_0_q=20.0
bitrate=5317.0kbits/s
total_size=799277104
out_time_us=1202600000
out_time_ms=1202600000
out_time=00:20:02.600000
dup_frames=0
drop_frames=0
speed= 1.1x
progress=continue
frame=30211 fps= 27 q=23.0 size=  784128KiB time=00:20:08.48 bitrate=5315.4kbits/s speed= 1.1x    
frame=30211
fps=27.49
stream_0_0_q=23.0
bitrate=5315.4kbits/s
total_size=802947120
out_time_us=1208480000
out_time_ms=1208480000
out_time=00:20:08.480000
dup_frames=0
drop_frames=0
speed= 1.1x
progress=continue
frame=30346 fps= 27 q=23.0 size=  788224KiB time=00:20:13.88 bitrate=5319.4kbits/s speed= 1.1x    
frame=30346
fps=27.49
stream_0_0_q=23.0
bitrate=5319.4kbits/s
total_size=807141424
out_time_us=1213880000
out_time_ms=1213880000
out_time=00:20:13.880000
dup_frames=0
drop_frames=0
speed= 1.1x
progress=continue
frame=30479 fps= 27 q=23.0 size=  792320KiB time=00:20:19.12 bitrate=5324.1kbits/s speed= 1.1x    
frame=30479
fps=27.48
stream_0_0_q=23.0
bitrate=5324.1kbits/s
total_size=811335728
out_time_us=1219120000
out_time_ms=1219120000
out_time=00:20:19.120000
dup_frames=0
drop_frames=0
speed= 1.1x
progress=continue
frame=30620 fps= 27 q=23.0 size=  795904KiB time=00:20:24.72 bitrate=5323.7kbits/s speed= 1.1x    
frame=30620
fps=27.49
stream_0_0_q=23.0
bitrate=5323.7kbits/s
total_size=815005744
out_time_us=1224720000
out_time_ms=1224720000
out_time=00:20:24.720000
dup_frames=0
drop_frames=0
speed= 1.1x
progress=continue
frame=30790 fps= 28 q=20.0 size=  799232KiB time=00:20:31.64 bitrate=5315.9kbits/s speed= 1.1x    
frame=30790
fps=27.51
stream_0_0_q=20.0
bitrate=5315.9kbits/s
total_size=818413616
out_time_us=1231640000
out_time_ms=1231640000
out_time=00:20:31.640000
dup_frames=0
drop_frames=0
speed= 1.1x
progress=continue
frame=30978 fps= 28 q=23.0 size=  802816KiB time=00:20:39.04 bitrate=5307.9kbits/s speed= 1.1x    
frame=30978
fps=27.56
stream_0_0_q=23.0
bitrate=5307.9kbits/s
total_size=822083632
out_time_us=1239040000
out_time_ms=1239040000
out_time=00:20:39.040000
dup_frames=0
drop_frames=0
speed= 1.1x
progress=continue
frame=31134 fps= 28 q=23.0 size=  806400KiB time=00:20:45.40 bitrate=5304.3kbits/s speed= 1.1x    
frame=31134
fps=27.57
stream_0_0_q=23.0
bitrate=5304.3kbits/s
total_size=825753648
out_time_us=1245400000
out_time_ms=1245400000
out_time=00:20:45.400000
dup_frames=0
drop_frames=0
speed= 1.1x
progress=continue
frame=31271 fps= 28 q=23.0 size=  809728KiB time=00:20:50.88 bitrate=5302.9kbits/s speed= 1.1x    
frame=31271
fps=27.57
stream_0_0_q=23.0
bitrate=5302.9kbits/s
total_size=829161520
out_time_us=1250880000
out_time_ms=1250880000
out_time=00:20:50.880000
dup_frames=0
drop_frames=0
speed= 1.1x
progress=continue
frame=31443 fps= 28 q=23.0 size=  812800KiB time=00:20:57.72 bitrate=5294.1kbits/s speed= 1.1x    
frame=31443
fps=27.60
stream_0_0_q=23.0
bitrate=5294.1kbits/s
total_size=832307248
out_time_us=1257720000
out_time_ms=1257720000
out_time=00:20:57.720000
dup_frames=0
drop_frames=0
speed= 1.1x
progress=continue
frame=31617 fps= 28 q=23.0 size=  815872KiB time=00:21:04.68 bitrate=5284.8kbits/s speed=1.11x    
frame=31617
fps=27.63
stream_0_0_q=23.0
bitrate=5284.8kbits/s
total_size=835452976
out_time_us=1264680000
out_time_ms=1264680000
out_time=00:21:04.680000
dup_frames=0
drop_frames=0
speed=1.11x
progress=continue
frame=31793 fps= 28 q=23.0 size=  819712KiB time=00:21:11.76 bitrate=5280.1kbits/s speed=1.11x    
frame=31793
fps=27.66
stream_0_0_q=23.0
bitrate=5280.1kbits/s
total_size=839385136
out_time_us=1271760000
out_time_ms=1271760000
out_time=00:21:11.760000
dup_frames=0
drop_frames=0
speed=1.11x
progress=continue
frame=31958 fps= 28 q=23.0 size=  823040KiB time=00:21:18.36 bitrate=5274.2kbits/s speed=1.11x    
frame=31958
fps=27.68
stream_0_0_q=23.0
bitrate=5274.2kbits/s
total_size=842793008
out_time_us=1278360000
out_time_ms=1278360000
out_time=00:21:18.360000
dup_frames=0
drop_frames=0
speed=1.11x
progress=continue
frame=32105 fps= 28 q=23.0 size=  826368KiB time=00:21:24.20 bitrate=5271.5kbits/s speed=1.11x    
frame=32105
fps=27.69
stream_0_0_q=23.0
bitrate=5271.5kbits/s
total_size=846200880
out_time_us=1284200000
out_time_ms=1284200000
out_time=00:21:24.200000
dup_frames=0
drop_frames=0
speed=1.11x
progress=continue
frame=32254 fps= 28 q=23.0 size=  829696KiB time=00:21:30.20 bitrate=5268.1kbits/s speed=1.11x    
frame=32254
fps=27.70
stream_0_0_q=23.0
bitrate=5268.1kbits/s
total_size=849608752
out_time_us=1290200000
out_time_ms=1290200000
out_time=00:21:30.200000
dup_frames=0
drop_frames=0
speed=1.11x
progress=continue
frame=32399 fps= 28 q=23.0 size=  833536KiB time=00:21:36.00 bitrate=5268.8kbits/s speed=1.11x    
frame=32399
fps=27.70
stream_0_0_q=23.0
bitrate=5268.8kbits/s
total_size=853540912
out_time_us=1296000000
out_time_ms=1296000000
out_time=00:21:36.000000
dup_frames=0
drop_frames=0
speed=1.11x
progress=continue
frame=32553 fps= 28 q=23.0 size=  837120KiB time=00:21:42.08 bitrate=5266.7kbits/s speed=1.11x    
frame=32553
fps=27.72
stream_0_0_q=23.0
bitrate=5266.7kbits/s
total_size=857210928
out_time_us=1302080000
out_time_ms=1302080000
out_time=00:21:42.080000
dup_frames=0
drop_frames=0
speed=1.11x
progress=continue
frame=32671 fps= 28 q=23.0 size=  840192KiB time=00:21:46.88 bitrate=5266.6kbits/s speed=1.11x    
frame=32671
fps=27.70
stream_0_0_q=23.0
bitrate=5266.6kbits/s
total_size=860356656
out_time_us=1306880000
out_time_ms=1306880000
out_time=00:21:46.880000
dup_frames=0
drop_frames=0
speed=1.11x
progress=continue
frame=32777 fps= 28 q=23.0 size=  843520KiB time=00:21:51.12 bitrate=5270.4kbits/s speed=1.11x    
frame=32777
fps=27.67
stream_0_0_q=23.0
bitrate=5270.4kbits/s
total_size=863764528
out_time_us=1311120000
out_time_ms=1311120000
out_time=00:21:51.120000
dup_frames=0
drop_frames=0
speed=1.11x
progress=continue
frame=32896 fps= 28 q=23.0 size=  847360KiB time=00:21:55.80 bitrate=5275.6kbits/s speed=1.11x    
frame=32896
fps=27.65
stream_0_0_q=23.0
bitrate=5275.6kbits/s
total_size=867696688
out_time_us=1315800000
out_time_ms=1315800000
out_time=00:21:55.800000
dup_frames=0
drop_frames=0
speed=1.11x
progress=continue
frame=33004 fps= 28 q=23.0 size=  850944KiB time=00:22:00.20 bitrate=5280.2kbits/s speed=1.11x    
frame=33004
fps=27.63
stream_0_0_q=23.0
bitrate=5280.2kbits/s
total_size=871366704
out_time_us=1320200000
out_time_ms=1320200000
out_time=00:22:00.200000
dup_frames=0
drop_frames=0
speed=1.11x
progress=continue
frame=33129 fps= 28 q=23.0 size=  854784KiB time=00:22:05.16 bitrate=5284.2kbits/s speed= 1.1x    
frame=33129
fps=27.62
stream_0_0_q=23.0
bitrate=5284.2kbits/s
total_size=875298864
out_time_us=1325160000
out_time_ms=1325160000
out_time=00:22:05.160000
dup_frames=0
drop_frames=0
speed= 1.1x
progress=continue
frame=33248 fps= 28 q=23.0 size=  858112KiB time=00:22:09.96 bitrate=5285.6kbits/s speed= 1.1x    
frame=33248
fps=27.60
stream_0_0_q=23.0
bitrate=5285.6kbits/s
total_size=878706736
out_time_us=1329960000
out_time_ms=1329960000
out_time=00:22:09.960000
dup_frames=0
drop_frames=0
speed= 1.1x
progress=continue
frame=33372 fps= 28 q=23.0 size=  861696KiB time=00:22:14.92 bitrate=5288.0kbits/s speed= 1.1x    
frame=33372
fps=27.59
stream_0_0_q=23.0
bitrate=5288.0kbits/s
total_size=882376752
out_time_us=1334920000
out_time_ms=1334920000
out_time=00:22:14.920000
dup_frames=0
drop_frames=0
speed= 1.1x
progress=continue
frame=33505 fps= 28 q=23.0 size=  865280KiB time=00:22:20.16 bitrate=5289.2kbits/s speed= 1.1x    
frame=33505
fps=27.58
stream_0_0_q=23.0
bitrate=5289.2kbits/s
total_size=886046768
out_time_us=1340160000
out_time_ms=1340160000
out_time=00:22:20.160000
dup_frames=0
drop_frames=0
speed= 1.1x
progress=continue
frame=33640 fps= 28 q=20.0 size=  868864KiB time=00:22:25.64 bitrate=5289.5kbits/s speed= 1.1x    
frame=33640
fps=27.58
stream_0_0_q=20.0
bitrate=5289.5kbits/s
total_size=889716784
out_time_us=1345640000
out_time_ms=1345640000
out_time=00:22:25.640000
dup_frames=0
drop_frames=0
speed= 1.1x
progress=continue
frame=33780 fps= 28 q=23.0 size=  872192KiB time=00:22:31.24 bitrate=5287.7kbits/s speed= 1.1x    
frame=33780
fps=27.58
stream_0_0_q=23.0
bitrate=5287.7kbits/s
total_size=893124656
out_time_us=1351240000
out_time_ms=1351240000
out_time=00:22:31.240000
dup_frames=0
drop_frames=0
speed= 1.1x
progress=continue
frame=33939 fps= 28 q=23.0 size=  875264KiB time=00:22:37.60 bitrate=5281.5kbits/s speed= 1.1x    
frame=33939
fps=27.60
stream_0_0_q=23.0
bitrate=5281.5kbits/s
total_size=896270384
out_time_us=1357600000
out_time_ms=1357600000
out_time=00:22:37.600000
dup_frames=0
drop_frames=0
speed= 1.1x
progress=continue
frame=34086 fps= 28 q=23.0 size=  878080KiB time=00:22:43.48 bitrate=5275.6kbits/s speed= 1.1x    
frame=34086
fps=27.60
stream_0_0_q=23.0
bitrate=5275.6kbits/s
total_size=899153968
out_time_us=1363480000
out_time_ms=1363480000
out_time=00:22:43.480000
dup_frames=0
drop_frames=0
speed= 1.1x
progress=continue
frame=34224 fps= 28 q=23.0 size=  880896KiB time=00:22:49.00 bitrate=5271.2kbits/s speed= 1.1x    
frame=34224
fps=27.60
stream_0_0_q=23.0
bitrate=5271.2kbits/s
total_size=902037552
out_time_us=1369000000
out_time_ms=1369000000
out_time=00:22:49.000000
dup_frames=0
drop_frames=0
speed= 1.1x
progress=continue
frame=34361 fps= 28 q=23.0 size=  884224KiB time=00:22:54.48 bitrate=5270.0kbits/s speed= 1.1x    
frame=34361
fps=27.60
stream_0_0_q=23.0
bitrate=5270.0kbits/s
total_size=905445424
out_time_us=1374480000
out_time_ms=1374480000
out_time=00:22:54.480000
dup_frames=0
drop_frames=0
speed= 1.1x
progress=continue
frame=34504 fps= 28 q=23.0 size=  887808KiB time=00:23:00.16 bitrate=5269.6kbits/s speed= 1.1x    
frame=34504
fps=27.60
stream_0_0_q=23.0
bitrate=5269.6kbits/s
total_size=909115440
out_time_us=1380160000
out_time_ms=1380160000
out_time=00:23:00.160000
dup_frames=0
drop_frames=0
speed= 1.1x
progress=continue
frame=34645 fps= 28 q=23.0 size=  891136KiB time=00:23:05.84 bitrate=5267.7kbits/s speed= 1.1x    
frame=34645
fps=27.61
stream_0_0_q=23.0
bitrate=5267.7kbits/s
total_size=912523312
out_time_us=1385840000
out_time_ms=1385840000
out_time=00:23:05.840000
dup_frames=0
drop_frames=0
speed= 1.1x
progress=continue
frame=34799 fps= 28 q=23.0 size=  894464KiB time=00:23:11.96 bitrate=5264.1kbits/s speed= 1.1x    
frame=34799
fps=27.62
stream_0_0_q=23.0
bitrate=5264.1kbits/s
total_size=915931184
out_time_us=1391960000
out_time_ms=1391960000
out_time=00:23:11.960000
dup_frames=0
drop_frames=0
speed= 1.1x
progress=continue
frame=34938 fps= 28 q=23.0 size=  897536KiB time=00:23:17.56 bitrate=5261.0kbits/s speed= 1.1x    
frame=34938
fps=27.62
stream_0_0_q=23.0
bitrate=5261.0kbits/s
total_size=919076912
out_time_us=1397560000
out_time_ms=1397560000
out_time=00:23:17.560000
dup_frames=0
drop_frames=0
speed= 1.1x
progress=continue
frame=35079 fps= 28 q=23.0 size=  901120KiB time=00:23:23.20 bitrate=5260.8kbits/s speed= 1.1x    
frame=35079
fps=27.62
stream_0_0_q=23.0
bitrate=5260.8kbits/s
total_size=922746928
out_time_us=1403200000
out_time_ms=1403200000
out_time=00:23:23.200000
dup_frames=0
drop_frames=0
speed= 1.1x
progress=continue
frame=35222 fps= 28 q=23.0 size=  904192KiB time=00:23:28.84 bitrate=5257.6kbits/s speed= 1.1x    
frame=35222
fps=27.62
stream_0_0_q=23.0
bitrate=5257.6kbits/s
total_size=925892656
out_time_us=1408840000
out_time_ms=1408840000
out_time=00:23:28.840000
dup_frames=0
drop_frames=0
speed= 1.1x
progress=continue
frame=35377 fps= 28 q=23.0 size=  907776KiB time=00:23:35.12 bitrate=5255.0kbits/s speed=1.11x    
frame=35377
fps=27.63
stream_0_0_q=23.0
bitrate=5255.0kbits/s
total_size=929562672
out_time_us=1415120000
out_time_ms=1415120000
out_time=00:23:35.120000
dup_frames=0
drop_frames=0
speed=1.11x
progress=continue
frame=35528 fps= 28 q=23.0 size=  910848KiB time=00:23:41.16 bitrate=5250.4kbits/s speed=1.11x    
frame=35528
fps=27.64
stream_0_0_q=23.0
bitrate=5250.4kbits/s
total_size=932708400
out_time_us=1421160000
out_time_ms=1421160000
out_time=00:23:41.160000
dup_frames=0
drop_frames=0
speed=1.11x
progress=continue
frame=35708 fps= 28 q=23.0 size=  914176KiB time=00:23:48.36 bitrate=5243.0kbits/s speed=1.11x    
frame=35708
fps=27.68
stream_0_0_q=23.0
bitrate=5243.0kbits/s
total_size=936116272
out_time_us=1428360000
out_time_ms=1428360000
out_time=00:23:48.360000
dup_frames=0
drop_frames=0
speed=1.11x
progress=continue
frame=35852 fps= 28 q=23.0 size=  917504KiB time=00:23:54.00 bitrate=5241.4kbits/s speed=1.11x    
frame=35852
fps=27.68
stream_0_0_q=23.0
bitrate=5241.4kbits/s
total_size=939524144
out_time_us=1434000000
out_time_ms=1434000000
out_time=00:23:54.000000
dup_frames=0
drop_frames=0
speed=1.11x
progress=continue
frame=36010 fps= 28 q=23.0 size=  920576KiB time=00:24:00.44 bitrate=5235.5kbits/s speed=1.11x    
frame=36010
fps=27.69
stream_0_0_q=23.0
bitrate=5235.5kbits/s
total_size=942669872
out_time_us=1440440000
out_time_ms=1440440000
out_time=00:24:00.440000
dup_frames=0
drop_frames=0
speed=1.11x
progress=continue
frame=36147 fps= 28 q=23.0 size=  924160KiB time=00:24:05.92 bitrate=5235.9kbits/s speed=1.11x    
frame=36147
fps=27.69
stream_0_0_q=23.0
bitrate=5235.9kbits/s
total_size=946339888
out_time_us=1445920000
out_time_ms=1445920000
out_time=00:24:05.920000
dup_frames=0
drop_frames=0
speed=1.11x
progress=continue
frame=36299 fps= 28 q=23.0 size=  927232KiB time=00:24:11.96 bitrate=5231.5kbits/s speed=1.11x    
frame=36299
fps=27.70
stream_0_0_q=23.0
bitrate=5231.5kbits/s
total_size=949485616
out_time_us=1451960000
out_time_ms=1451960000
out_time=00:24:11.960000
dup_frames=0
drop_frames=0
speed=1.11x
progress=continue
frame=36406 fps= 28 q=23.0 size=  930816KiB time=00:24:16.20 bitrate=5236.4kbits/s speed=1.11x    
frame=36406
fps=27.68
stream_0_0_q=23.0
bitrate=5236.4kbits/s
total_size=953155632
out_time_us=1456200000
out_time_ms=1456200000
out_time=00:24:16.200000
dup_frames=0
drop_frames=0
speed=1.11x
progress=continue
frame=36521 fps= 28 q=23.0 size=  934912KiB time=00:24:20.80 bitrate=5242.9kbits/s speed=1.11x    
frame=36521
fps=27.66
stream_0_0_q=23.0
bitrate=5242.9kbits/s
total_size=957349936
out_time_us=1460800000
out_time_ms=1460800000
out_time=00:24:20.800000
dup_frames=0
drop_frames=0
speed=1.11x
progress=continue
frame=36643 fps= 28 q=23.0 size=  938752KiB time=00:24:25.68 bitrate=5246.9kbits/s speed=1.11x    
frame=36643
fps=27.64
stream_0_0_q=23.0
bitrate=5246.9kbits/s
total_size=961282096
out_time_us=1465680000
out_time_ms=1465680000
out_time=00:24:25.680000
dup_frames=0
drop_frames=0
speed=1.11x
progress=continue
frame=36768 fps= 28 q=23.0 size=  942592KiB time=00:24:30.76 bitrate=5250.2kbits/s speed=1.11x    
frame=36768
fps=27.63
stream_0_0_q=23.0
bitrate=5250.2kbits/s
total_size=965214256
out_time_us=1470760000
out_time_ms=1470760000
out_time=00:24:30.760000
dup_frames=0
drop_frames=0
speed=1.11x
progress=continue
frame=36895 fps= 28 q=23.0 size=  946176KiB time=00:24:35.84 bitrate=5252.0kbits/s speed= 1.1x    
frame=36895
fps=27.62
stream_0_0_q=23.0
bitrate=5252.0kbits/s
total_size=968884272
out_time_us=1475840000
out_time_ms=1475840000
out_time=00:24:35.840000
dup_frames=0
drop_frames=0
speed= 1.1x
progress=continue
frame=37028 fps= 28 q=23.0 size=  950016KiB time=00:24:41.16 bitrate=5254.3kbits/s speed= 1.1x    
frame=37028
fps=27.62
stream_0_0_q=23.0
bitrate=5254.3kbits/s
total_size=972816432
out_time_us=1481160000
out_time_ms=1481160000
out_time=00:24:41.160000
dup_frames=0
drop_frames=0
speed= 1.1x
progress=continue
frame=37165 fps= 28 q=20.0 size=  953600KiB time=00:24:46.64 bitrate=5254.7kbits/s speed= 1.1x    
frame=37165
fps=27.61
stream_0_0_q=20.0
bitrate=5254.7kbits/s
total_size=976486448
out_time_us=1486640000
out_time_ms=1486640000
out_time=00:24:46.640000
dup_frames=0
drop_frames=0
speed= 1.1x
progress=continue
frame=37293 fps= 28 q=23.0 size=  957184KiB time=00:24:51.76 bitrate=5256.4kbits/s speed= 1.1x    
frame=37293
fps=27.61
stream_0_0_q=23.0
bitrate=5256.4kbits/s
total_size=980156464
out_time_us=1491760000
out_time_ms=1491760000
out_time=00:24:51.760000
dup_frames=0
drop_frames=0
speed= 1.1x
progress=continue
frame=37406 fps= 28 q=23.0 size=  961792KiB time=00:24:56.24 bitrate=5265.9kbits/s speed= 1.1x    
frame=37406
fps=27.59
stream_0_0_q=23.0
bitrate=5265.9kbits/s
total_size=984875056
out_time_us=1496240000
out_time_ms=1496240000
out_time=00:24:56.240000
dup_frames=0
drop_frames=0
speed= 1.1x
progress=continue
frame=37527 fps= 28 q=23.0 size=  966912KiB time=00:25:00.96 bitrate=5277.3kbits/s speed= 1.1x    
frame=37527
fps=27.57
stream_0_0_q=23.0
bitrate=5277.3kbits/s
total_size=990117936
out_time_us=1500960000
out_time_ms=1500960000
out_time=00:25:00.960000
dup_frames=0
drop_frames=0
speed= 1.1x
progress=continue
frame=37678 fps= 28 q=23.0 size=  970240KiB time=00:25:07.12 bitrate=5273.8kbits/s speed= 1.1x    
frame=37678
fps=27.58
stream_0_0_q=23.0
bitrate=5273.8kbits/s
total_size=993525808
out_time_us=1507120000
out_time_ms=1507120000
out_time=00:25:07.120000
dup_frames=0
drop_frames=0
speed= 1.1x
progress=continue
frame=37785 fps= 28 q=23.0 size=  975616KiB time=00:25:11.40 bitrate=5288.0kbits/s speed= 1.1x    
frame=37785
fps=27.56
stream_0_0_q=23.0
bitrate=5288.0kbits/s
total_size=999030832
out_time_us=1511400000
out_time_ms=1511400000
out_time=00:25:11.400000
dup_frames=0
drop_frames=0
speed= 1.1x
progress=continue
frame=37896 fps= 28 q=23.0 size=  980480KiB time=00:25:15.80 bitrate=5298.9kbits/s speed= 1.1x    
frame=37896
fps=27.54
stream_0_0_q=23.0
bitrate=5298.9kbits/s
total_size=1004011568
out_time_us=1515800000
out_time_ms=1515800000
out_time=00:25:15.800000
dup_frames=0
drop_frames=0
speed= 1.1x
progress=continue
frame=38018 fps= 28 q=23.0 size=  984576KiB time=00:25:20.68 bitrate=5304.0kbits/s speed= 1.1x    
frame=38018
fps=27.52
stream_0_0_q=23.0
bitrate=5304.0kbits/s
total_size=1008205872
out_time_us=1520680000
out_time_ms=1520680000
out_time=00:25:20.680000
dup_frames=0
drop_frames=0
speed= 1.1x
progress=continue
frame=38124 fps= 27 q=23.0 size=  989440KiB time=00:25:24.96 bitrate=5315.2kbits/s speed= 1.1x    
frame=38124
fps=27.50
stream_0_0_q=23.0
bitrate=5315.2kbits/s
total_size=1013186608
out_time_us=1524960000
out_time_ms=1524960000
out_time=00:25:24.960000
dup_frames=0
drop_frames=0
speed= 1.1x
progress=continue
frame=38213 fps= 27 q=23.0 size=  998144KiB time=00:25:28.56 bitrate=5349.3kbits/s speed= 1.1x    
frame=38213
fps=27.46
stream_0_0_q=23.0
bitrate=5349.3kbits/s
total_size=1022099504
out_time_us=1528560000
out_time_ms=1528560000
out_time=00:25:28.560000
dup_frames=0
drop_frames=0
speed= 1.1x
progress=continue
frame=38323 fps= 27 q=23.0 size= 1003520KiB time=00:25:32.92 bitrate=5362.9kbits/s speed= 1.1x    
frame=38323
fps=27.44
stream_0_0_q=23.0
bitrate=5362.9kbits/s
total_size=1027604528
out_time_us=1532920000
out_time_ms=1532920000
out_time=00:25:32.920000
dup_frames=0
drop_frames=0
speed= 1.1x
progress=continue
frame=38438 fps= 27 q=23.0 size= 1008384KiB time=00:25:37.52 bitrate=5372.7kbits/s speed= 1.1x    
frame=38438
fps=27.42
stream_0_0_q=23.0
bitrate=5372.7kbits/s
total_size=1032585264
out_time_us=1537520000
out_time_ms=1537520000
out_time=00:25:37.520000
dup_frames=0
drop_frames=0
speed= 1.1x
progress=continue
frame=38558 fps= 27 q=23.0 size= 1013504KiB time=00:25:42.32 bitrate=5383.2kbits/s speed= 1.1x    
frame=38558
fps=27.41
stream_0_0_q=23.0
bitrate=5383.2kbits/s
total_size=1037828144
out_time_us=1542320000
out_time_ms=1542320000
out_time=00:25:42.320000
dup_frames=0
drop_frames=0
speed= 1.1x
progress=continue
frame=38674 fps= 27 q=23.0 size= 1020416KiB time=00:25:47.00 bitrate=5403.5kbits/s speed= 1.1x    
frame=38674
fps=27.40
stream_0_0_q=23.0
bitrate=5403.5kbits/s
total_size=1044906032
out_time_us=1547000000
out_time_ms=1547000000
out_time=00:25:47.000000
dup_frames=0
drop_frames=0
speed= 1.1x
progress=continue
frame=38790 fps= 27 q=20.0 size= 1026048KiB time=00:25:51.56 bitrate=5417.4kbits/s speed= 1.1x    
frame=38790
fps=27.38
stream_0_0_q=20.0
bitrate=5417.4kbits/s
total_size=1050673200
out_time_us=1551560000
out_time_ms=1551560000
out_time=00:25:51.560000
dup_frames=0
drop_frames=0
speed= 1.1x
progress=continue
frame=38899 fps= 27 q=23.0 size= 1031168KiB time=00:25:56.00 bitrate=5428.9kbits/s speed=1.09x    
frame=38899
fps=27.36
stream_0_0_q=23.0
bitrate=5428.9kbits/s
total_size=1055916080
out_time_us=1556000000
out_time_ms=1556000000
out_time=00:25:56.000000
dup_frames=0
drop_frames=0
speed=1.09x
progress=continue
frame=38987 fps= 27 q=23.0 size= 1037824KiB time=00:25:59.52 bitrate=5451.6kbits/s speed=1.09x    
frame=38987
fps=27.32
stream_0_0_q=23.0
bitrate=5451.6kbits/s
total_size=1062731824
out_time_us=1559520000
out_time_ms=1559520000
out_time=00:25:59.520000
dup_frames=0
drop_frames=0
speed=1.09x
progress=continue
frame=39090 fps= 27 q=20.0 size= 1042688KiB time=00:26:03.64 bitrate=5462.7kbits/s speed=1.09x    
frame=39090
fps=27.30
stream_0_0_q=20.0
bitrate=5462.7kbits/s
total_size=1067712560
out_time_us=1563640000
out_time_ms=1563640000
out_time=00:26:03.640000
dup_frames=0
drop_frames=0
speed=1.09x
progress=continue
frame=39195 fps= 27 q=23.0 size= 1048064KiB time=00:26:07.84 bitrate=5476.2kbits/s speed=1.09x    
frame=39195
fps=27.28
stream_0_0_q=23.0
bitrate=5476.2kbits/s
total_size=1073217584
out_time_us=1567840000
out_time_ms=1567840000
out_time=00:26:07.840000
dup_frames=0
drop_frames=0
speed=1.09x
progress=continue
frame=39313 fps= 27 q=23.0 size= 1053184KiB time=00:26:12.56 bitrate=5486.4kbits/s speed=1.09x    
frame=39313
fps=27.26
stream_0_0_q=23.0
bitrate=5486.4kbits/s
total_size=1078460464
out_time_us=1572560000
out_time_ms=1572560000
out_time=00:26:12.560000
dup_frames=0
drop_frames=0
speed=1.09x
progress=continue
frame=39416 fps= 27 q=23.0 size= 1059840KiB time=00:26:16.64 bitrate=5506.8kbits/s speed=1.09x    
frame=39416
fps=27.24
stream_0_0_q=23.0
bitrate=5506.8kbits/s
total_size=1085276208
out_time_us=1576640000
out_time_ms=1576640000
out_time=00:26:16.640000
dup_frames=0
drop_frames=0
speed=1.09x
progress=continue
frame=39528 fps= 27 q=23.0 size= 1065728KiB time=00:26:21.16 bitrate=5521.5kbits/s speed=1.09x    
frame=39528
fps=27.22
stream_0_0_q=23.0
bitrate=5521.5kbits/s
total_size=1091305520
out_time_us=1581160000
out_time_ms=1581160000
out_time=00:26:21.160000
dup_frames=0
drop_frames=0
speed=1.09x
progress=continue
frame=39645 fps= 27 q=23.0 size= 1070336KiB time=00:26:25.72 bitrate=5529.5kbits/s speed=1.09x    
frame=39645
fps=27.21
stream_0_0_q=23.0
bitrate=5529.5kbits/s
total_size=1096024112
out_time_us=1585720000
out_time_ms=1585720000
out_time=00:26:25.720000
dup_frames=0
drop_frames=0
speed=1.09x
progress=continue
frame=39740 fps= 27 q=20.0 size= 1077760KiB time=00:26:29.64 bitrate=5554.1kbits/s speed=1.09x    
frame=39740
fps=27.18
stream_0_0_q=20.0
bitrate=5554.1kbits/s
total_size=1103626288
out_time_us=1589640000
out_time_ms=1589640000
out_time=00:26:29.640000
dup_frames=0
drop_frames=0
speed=1.09x
progress=continue
frame=39846 fps= 27 q=23.0 size= 1082112KiB time=00:26:33.88 bitrate=5561.7kbits/s speed=1.09x    
frame=39846
fps=27.16
stream_0_0_q=23.0
bitrate=5561.7kbits/s
total_size=1108082736
out_time_us=1593880000
out_time_ms=1593880000
out_time=00:26:33.880000
dup_frames=0
drop_frames=0
speed=1.09x
progress=continue
frame=39970 fps= 27 q=23.0 size= 1086976KiB time=00:26:38.84 bitrate=5569.4kbits/s speed=1.09x    
frame=39970
fps=27.15
stream_0_0_q=23.0
bitrate=5569.4kbits/s
total_size=1113063472
out_time_us=1598840000
out_time_ms=1598840000
out_time=00:26:38.840000
dup_frames=0
drop_frames=0
speed=1.09x
progress=continue
frame=40082 fps= 27 q=23.0 size= 1092096KiB time=00:26:43.32 bitrate=5580.0kbits/s speed=1.09x    
frame=40082
fps=27.13
stream_0_0_q=23.0
bitrate=5580.0kbits/s
total_size=1118306352
out_time_us=1603320000
out_time_ms=1603320000
out_time=00:26:43.320000
dup_frames=0
drop_frames=0
speed=1.09x
progress=continue
frame=40183 fps= 27 q=23.0 size= 1097984KiB time=00:26:47.36 bitrate=5595.9kbits/s speed=1.08x    
frame=40183
fps=27.11
stream_0_0_q=23.0
bitrate=5595.9kbits/s
total_size=1124335664
out_time_us=1607360000
out_time_ms=1607360000
out_time=00:26:47.360000
dup_frames=0
drop_frames=0
speed=1.08x
progress=continue
frame=40287 fps= 27 q=23.0 size= 1103104KiB time=00:26:51.48 bitrate=5607.7kbits/s speed=1.08x    
frame=40287
fps=27.09
stream_0_0_q=23.0
bitrate=5607.7kbits/s
total_size=1129578544
out_time_us=1611480000
out_time_ms=1611480000
out_time=00:26:51.480000
dup_frames=0
drop_frames=0
speed=1.08x
progress=continue
frame=40395 fps= 27 q=23.0 size= 1108480KiB time=00:26:55.80 bitrate=5619.9kbits/s speed=1.08x    
frame=40395
fps=27.07
stream_0_0_q=23.0
bitrate=5619.9kbits/s
total_size=1135083568
out_time_us=1615800000
out_time_ms=1615800000
out_time=00:26:55.800000
dup_frames=0
drop_frames=0
speed=1.08x
progress=continue
frame=40502 fps= 27 q=23.0 size= 1113856KiB time=00:27:00.12 bitrate=5632.1kbits/s speed=1.08x    
frame=40502
fps=27.05
stream_0_0_q=23.0
bitrate=5632.1kbits/s
total_size=1140588592
out_time_us=1620120000
out_time_ms=1620120000
out_time=00:27:00.120000
dup_frames=0
drop_frames=0
speed=1.08x
progress=continue
frame=40610 fps= 27 q=23.0 size= 1119232KiB time=00:27:04.40 bitrate=5644.4kbits/s speed=1.08x    
frame=40610
fps=27.03
stream_0_0_q=23.0
bitrate=5644.4kbits/s
total_size=1146093616
out_time_us=1624400000
out_time_ms=1624400000
out_time=00:27:04.400000
dup_frames=0
drop_frames=0
speed=1.08x
progress=continue
frame=40715 fps= 27 q=20.0 size= 1124096KiB time=00:27:08.60 bitrate=5654.3kbits/s speed=1.08x    
frame=40715
fps=27.01
stream_0_0_q=20.0
bitrate=5654.3kbits/s
total_size=1151074352
out_time_us=1628600000
out_time_ms=1628600000
out_time=00:27:08.600000
dup_frames=0
drop_frames=0
speed=1.08x
progress=continue
frame=40831 fps= 27 q=23.0 size= 1129216KiB time=00:27:13.28 bitrate=5663.8kbits/s speed=1.08x    
frame=40831
fps=26.99
stream_0_0_q=23.0
bitrate=5663.8kbits/s
total_size=1156317232
out_time_us=1633280000
out_time_ms=1633280000
out_time=00:27:13.280000
dup_frames=0
drop_frames=0
speed=1.08x
progress=continue
frame=40936 fps= 27 q=23.0 size= 1135872KiB time=00:27:17.44 bitrate=5682.7kbits/s speed=1.08x    
frame=40936
fps=26.97
stream_0_0_q=23.0
bitrate=5682.7kbits/s
total_size=1163132976
out_time_us=1637440000
out_time_ms=1637440000
out_time=00:27:17.440000
dup_frames=0
drop_frames=0
speed=1.08x
progress=continue
frame=41044 fps= 27 q=23.0 size= 1143808KiB time=00:27:21.68 bitrate=5707.6kbits/s speed=1.08x    
frame=41044
fps=26.96
stream_0_0_q=23.0
bitrate=5707.6kbits/s
total_size=1171259440
out_time_us=1641680000
out_time_ms=1641680000
out_time=00:27:21.680000
dup_frames=0
drop_frames=0
speed=1.08x
progress=continue
[mp4 @ 0000020b33285d00] Starting second pass: moving the moov atom to the beginning of the file
[out#0/mp4 @ 0000020b33047400] video:1109750KiB audio:38688KiB subtitle:0KiB other streams:0KiB global headers:0KiB muxing overhead: 0.081435%
frame=41116 fps= 27 q=-1.0 Lsize= 1149374KiB time=00:27:24.68 bitrate=5724.9kbits/s speed=1.08x    
frame=41116
fps=26.92
stream_0_0_q=-1.0
bitrate=5724.9kbits/s
total_size=1176958606
out_time_us=1644680000
out_time_ms=1644680000
out_time=00:27:24.680000
dup_frames=0
drop_frames=0
speed=1.08x
progress=end
[libx264 @ 0000020b33286980] frame I:1645  Avg QP:14.15  size:129646
[libx264 @ 0000020b33286980] frame P:39471 Avg QP:17.38  size: 23387
[libx264 @ 0000020b33286980] mb I  I16..4: 11.2% 70.1% 18.7%
[libx264 @ 0000020b33286980] mb P  I16..4:  2.1%  6.3%  0.7%  P16..4: 35.1% 11.3%  5.0%  0.0%  0.0%    skip:39.4%
[libx264 @ 0000020b33286980] 8x8 transform intra:69.1% inter:82.1%
[libx264 @ 0000020b33286980] coded y,uvDC,uvAC intra: 55.6% 49.2% 24.5% inter: 17.3% 13.2% 0.6%
[libx264 @ 0000020b33286980] i16 v,h,dc,p: 35% 17%  4% 44%
[libx264 @ 0000020b33286980] i8 v,h,dc,ddl,ddr,vr,hd,vl,hu: 35% 16% 14%  4%  6%  7%  5%  7%  5%
[libx264 @ 0000020b33286980] i4 v,h,dc,ddl,ddr,vr,hd,vl,hu: 39% 19% 10%  4%  8%  7%  5%  5%  3%
[libx264 @ 0000020b33286980] i8c dc,h,v,p: 51% 17% 26%  6%
[libx264 @ 0000020b33286980] Weighted P-Frames: Y:1.4% UV:0.6%
[libx264 @ 0000020b33286980] ref P L0: 65.7%  9.6% 17.5%  7.1%  0.1%
[libx264 @ 0000020b33286980] kb/s:5527.69
[aac @ 0000020b3126eec0] Qavg: 1164.157
